<svg
    viewbox="0 0 38 38"
    stroke="currentColor"
    fill="none"
    xmlns="http://www.w3.org/2000/svg">
    <path
    d="M21.5 6H13.5C12.1 6 11 4.9 11 3.5C11 2.1 12.1 1 13.5 1H21.5C22.9
    1 24 2.1 24 3.5C24 4.8 22.8 6 21.5 6Z"
    stroke-width="1.5"
    stroke-miterlimit="10"
    stroke-linecap="round"
    stroke-linejoin="round" />
    <path
    d="M18 26V28"
    stroke-width="1.5"
    stroke-miterlimit="10"
    stroke-linecap="round"
    stroke-linejoin="round" />
    <path
    d="M8 17H6C3.8 17 2 18.8 2 21C2 23.2 3.8 25 6 25H33V28"
    stroke-width="1.5"
    stroke-miterlimit="10"
    stroke-linecap="round"
    stroke-linejoin="round" />
    <path
    d="M27 3H33V11"
    stroke-width="1.5"
    stroke-miterlimit="10"
    stroke-linecap="round"
    stroke-linejoin="round" />
    <path
    d="M17.6999 13.9L22.9999 17L17.6999 20L12.3999 17L17.6999 13.9Z"
    stroke-width="1.5"
    stroke-miterlimit="10"
    stroke-linecap="round"
    stroke-linejoin="round" />
    <path
    d="M18 8V11"
    stroke-width="1.5"
    stroke-miterlimit="10"
    stroke-linecap="round"
    stroke-linejoin="round" />
    <path
    d="M36 14H29V19H36V14Z"
    stroke-width="1.5"
    stroke-miterlimit="10"
    stroke-linecap="round"
    stroke-linejoin="round" />
    <path
    d="M30 34C30 32.3 31.3 31 33 31C34.7 31 36 32.3 36 34C36 35.7 34.7
    37 33 37C31.3 37 30 35.6 30 34Z"
    stroke-width="1.5"
    stroke-miterlimit="10"
    stroke-linecap="round"
    stroke-linejoin="round" />
    <path
    d="M18 37C16.3 37 15 35.7 15 34C15 32.3 16.3 31 18 31C19.7 31 21
    32.3 21 34C21 35.6 19.6 37 18 37Z"
    stroke-width="1.5"
    stroke-miterlimit="10"
    stroke-linecap="round"
    stroke-linejoin="round" />
</svg>