<svg
    viewbox="0 0 34 30"
    stroke="currentColor"
    fill="none"
    xmlns="http://www.w3.org/2000/svg">
    <path
    d="M0.800049 5.8H32.8"
    stroke-width="1.5"
    stroke-miterlimit="10"
    stroke-linecap="round"
    stroke-linejoin="round" />
    <path
    d="M6.80005 15.8L4.80005 13.8L6.80005 11.8"
    stroke-width="1.5"
    stroke-miterlimit="10"
    stroke-linecap="round"
    stroke-linejoin="round" />
    <path
    d="M14.8 11.8L16.8 13.8L14.8 15.8"
    stroke-width="1.5"
    stroke-miterlimit="10"
    stroke-linecap="round"
    stroke-linejoin="round" />
    <path
    d="M11.8 9.8L9.80005 17.8"
    stroke-width="1.5"
    stroke-miterlimit="10"
    stroke-linecap="round"
    stroke-linejoin="round" />
    <path
    d="M16.8 28.8H3.80005C2.10005 28.8 0.800049 27.5 0.800049
    25.8V3.8C0.800049 2.1 2.10005 0.800003 3.80005 0.800003H29.8C31.5
    0.800003 32.8 2.1 32.8 3.8V12.8"
    stroke-width="1.5"
    stroke-miterlimit="10"
    stroke-linecap="round"
    stroke-linejoin="round" />
    <path
    d="M28.2001 16.9C26.2001 16.4 24.0001 16.9 22.5001 18.5C20.2001 20.8
    20.2001 24.6 22.5001 27L24.2001 25.3"
    stroke-width="1.5"
    stroke-miterlimit="10"
    stroke-linecap="round"
    stroke-linejoin="round" />
    <path
    d="M25.1001 28.5C27.1001 29.1 29.4001 28.6 31.0001 27C33.3001 24.7
    33.3001 20.9 31.0001 18.5L29.3001 20.2"
    stroke-width="1.5"
    stroke-miterlimit="10"
    stroke-linecap="round"
    stroke-linejoin="round" />
</svg>