<svg width="415" height="445" viewBox="0 0 415 445" fill="none" xmlns="http://www.w3.org/2000/svg">
<path d="M409.229 57.0599V122.74H314.879L311.479 57.5199L409.229 57.0599Z" fill="#C6DABF" fill-opacity="0.75"/>
<path d="M311.479 57.5099V122.6H405.829V57.5099H311.479Z" fill="white"/>
<path d="M406.27 123.05H311V57.0499H406.24L406.27 123.05ZM311.93 122.16H405.38V57.9999H311.93V122.16Z" fill="#C6DABF" fill-opacity="0.75"/>
<path d="M395.61 65.6H321.7V114.52H395.61V65.6Z" fill="white"/>
<path d="M395.61 65.5999H395.24H394.19H390.13L374.9 65.6599L321.7 65.7699L321.91 65.5499C321.91 80.5499 321.91 97.0599 321.91 114.46L321.68 114.23H395.59L395.4 114.42C395.4 99.5299 395.48 87.3299 395.5 78.8299C395.5 74.5799 395.5 71.2599 395.55 68.9899C395.55 67.8599 395.55 66.9899 395.55 66.3999C395.55 65.8099 395.55 65.4999 395.55 65.4999C395.55 65.4999 395.55 65.7899 395.55 66.3599C395.55 66.9299 395.55 67.7999 395.55 68.9099C395.55 71.1799 395.55 74.4799 395.6 78.7099C395.6 87.2399 395.65 99.4799 395.69 114.42V114.6H395.51L321.6 114.65H321.37V114.42C321.37 97.0199 321.37 80.4199 321.37 65.5099V65.2999H321.59L374.93 65.3999L390.11 65.4599H394.11H395.48L395.61 65.5999Z" fill="#C6DABF" fill-opacity="0.75"/>
<path d="M311.479 57.33C312.057 57.5992 312.6 57.9348 313.099 58.33C314.099 59.03 315.379 60.02 316.799 61.15C318.219 62.28 319.469 63.36 320.349 64.15C320.858 64.5491 321.312 65.0131 321.699 65.53C319.903 64.2845 318.171 62.9495 316.509 61.53C314.743 60.2407 313.063 58.8377 311.479 57.33V57.33Z" fill="#C6DABF" fill-opacity="0.75"/>
<path d="M405.83 57.5199C404.265 59.0423 402.594 60.4525 400.83 61.7399C399.173 63.1484 397.419 64.4382 395.58 65.5999C397.144 64.0756 398.815 62.6653 400.58 61.3799C402.23 59.9625 403.985 58.6721 405.83 57.5199V57.5199Z" fill="#C6DABF" fill-opacity="0.75"/>
<path d="M405.749 122.61L395.229 114.09L405.749 122.61Z" fill="white"/>
<path d="M395.229 114.09C397.122 115.327 398.93 116.69 400.639 118.17C402.439 119.535 404.146 121.018 405.749 122.61C403.854 121.377 402.046 120.014 400.339 118.53C398.537 117.168 396.83 115.685 395.229 114.09V114.09Z" fill="#C6DABF" fill-opacity="0.75"/>
<path d="M311.479 122.61C313.01 121.094 314.651 119.693 316.389 118.42C318.029 117.027 319.767 115.754 321.589 114.61C320.054 116.118 318.413 117.515 316.679 118.79C315.04 120.187 313.302 121.463 311.479 122.61V122.61Z" fill="#C6DABF" fill-opacity="0.75"/>
<path d="M336.71 80.84V97.22H383.21V80.84H336.71Z" fill="#C6DABF" fill-opacity="0.75"/>
<path d="M148.41 20.24C148.41 20.24 148.33 20.24 148.18 20.17L147.51 19.91L144.99 18.91L135.75 14.91L105.34 1.65996L104.29 1.19996H104.51L74.7099 13.94L65.7099 17.72L63.2499 18.72C62.9696 18.8486 62.6784 18.9524 62.3799 19.03C62.6466 18.874 62.924 18.737 63.2099 18.62L65.6199 17.52L74.6199 13.52L104.35 0.629955L104.46 0.579956L104.57 0.629955L105.62 1.08996L135.96 14.49L145.14 18.61L147.62 19.75L148.26 20.06C148.314 20.1165 148.364 20.1766 148.41 20.24V20.24Z" fill="#C6DABF" fill-opacity="0.75"/>
<path d="M195.84 15.88H0.549805V162.11H195.84V15.88Z" fill="#C6DABF" fill-opacity="0.75"/>
<path d="M189.75 22.6799H7.37988V156.1H189.75V22.6799Z" fill="#FAFAFA"/>
<path d="M47.6602 81C47.6602 81 47.8502 103.4 48.9902 110.23L77.0802 108.9C77.0802 108.9 74.6102 86.9 75.5602 81H47.6602Z" fill="#C6DABF" fill-opacity="0.75"/>
<path d="M61.4897 84.14C61.4897 84.14 61.4897 84.14 61.5997 84.14H61.8997C62.2907 84.1254 62.6823 84.1455 63.0697 84.2C63.6882 84.2925 64.2906 84.4709 64.8597 84.73C65.6065 85.1028 66.2672 85.6273 66.7997 86.27C67.4465 87.0611 67.9078 87.9872 68.1497 88.98C68.3652 90.1425 68.2616 91.3417 67.8497 92.45C67.6385 93.049 67.3741 93.628 67.0597 94.18C66.7497 94.75 66.4297 95.31 66.1597 95.93C65.5984 97.2041 65.2181 98.5505 65.0297 99.93V100.02H64.9397L62.1697 100.07H59.2597H59.1597V100C59.0385 98.6287 58.578 97.3091 57.8197 96.16C57.4797 95.59 57.1097 95.05 56.7597 94.5C56.4097 93.95 56.0497 93.5 55.7597 92.89C55.2411 91.8294 55.0865 90.6274 55.3197 89.47C55.4797 88.4713 55.8476 87.5174 56.3997 86.67C56.8799 85.9912 57.505 85.4276 58.2297 85.02C58.7707 84.7235 59.3493 84.5015 59.9497 84.36C60.3275 84.2666 60.712 84.2031 61.0997 84.17H61.3997C61.4697 84.17 61.4997 84.17 61.4997 84.17H61.3997H61.0997C60.7183 84.2161 60.3406 84.2896 59.9697 84.39C59.3784 84.5444 58.8101 84.7764 58.2797 85.08C57.5777 85.4837 56.976 86.0409 56.5197 86.71C55.9993 87.5474 55.6588 88.4839 55.5197 89.46C55.3015 90.5818 55.4561 91.7442 55.9597 92.77C56.2662 93.3164 56.6 93.8471 56.9597 94.36C57.2997 94.89 57.6797 95.44 58.0197 96.02C58.8016 97.1974 59.2761 98.552 59.3997 99.96L59.2997 99.85H62.2097H64.9797L64.8797 99.95C65.0763 98.5526 65.4667 97.1895 66.0397 95.9C66.3097 95.28 66.6397 94.69 66.9497 94.13C67.2681 93.592 67.5295 93.0222 67.7297 92.43C68.1373 91.3341 68.2308 90.1462 67.9997 89C67.7737 88.0312 67.3328 87.1255 66.7097 86.35C66.1951 85.716 65.5551 85.1951 64.8297 84.82C64.2752 84.5551 63.6861 84.3699 63.0797 84.27C62.6957 84.2112 62.3082 84.1778 61.9197 84.17H61.5097L61.4897 84.14Z" fill="white"/>
<path d="M62.9403 99.74C62.9382 99.71 62.9382 99.6799 62.9403 99.65V99.39C62.9403 99.16 62.8503 98.82 62.7803 98.39C62.6603 97.52 62.4703 96.25 62.3403 94.68C62.3403 94.29 62.3403 93.88 62.2703 93.45C62.2003 93.02 62.2703 92.57 62.2703 92.1C62.2845 91.6169 62.3932 91.1413 62.5903 90.7C62.7991 90.2211 63.1814 89.8388 63.6603 89.63C63.9156 89.5227 64.1968 89.493 64.4689 89.5446C64.741 89.5962 64.9919 89.7267 65.1903 89.92C65.2933 90.0202 65.3756 90.1399 65.4322 90.272C65.4888 90.4042 65.5188 90.5462 65.5203 90.69C65.511 90.9807 65.4094 91.2609 65.2303 91.49C65.0538 91.7279 64.8198 91.9172 64.5503 92.04C64.2865 92.1657 64.0075 92.2564 63.7203 92.31C63.1382 92.4352 62.5455 92.5055 61.9503 92.52C61.3521 92.5404 60.7533 92.5103 60.1603 92.43C59.8701 92.3914 59.5871 92.3105 59.3203 92.19C59.0531 92.0715 58.8119 91.9016 58.6103 91.69C58.4093 91.4809 58.2678 91.222 58.2003 90.94C58.142 90.6565 58.1771 90.3618 58.3003 90.1C58.4186 89.8428 58.6291 89.6394 58.8903 89.53C59.1465 89.4244 59.4341 89.4244 59.6903 89.53C59.9327 89.6427 60.14 89.8189 60.2903 90.04C60.4307 90.2527 60.5291 90.4903 60.5803 90.74C60.6736 91.2111 60.7239 91.6897 60.7303 92.17C60.7303 93.09 60.8203 93.95 60.8603 94.74C60.9403 96.31 61.0003 97.58 61.0503 98.47C61.0503 98.9 61.0503 99.24 61.0503 99.47V99.73C61.0525 99.7599 61.0525 99.79 61.0503 99.82C61.0459 99.7901 61.0459 99.7598 61.0503 99.73C61.0503 99.67 61.0503 99.58 61.0503 99.47C61.0503 99.36 61.0503 98.9 60.9803 98.47C60.9803 97.59 60.8603 96.31 60.7703 94.74C60.7703 93.96 60.6803 93.1 60.6203 92.17C60.6123 91.6936 60.5655 91.2187 60.4803 90.75C60.4235 90.5114 60.3253 90.2847 60.1903 90.08C60.0455 89.8767 59.8533 89.7119 59.6303 89.6C59.3927 89.5054 59.1279 89.5054 58.8903 89.6C58.6478 89.6991 58.4539 89.8894 58.3503 90.13C58.2271 90.3704 58.1918 90.6463 58.2503 90.91C58.3155 91.1769 58.45 91.4218 58.6403 91.62C59.0501 92.0204 59.5812 92.2736 60.1503 92.34C61.3226 92.4867 62.5107 92.4462 63.6703 92.22C63.9539 92.1649 64.2294 92.0742 64.4903 91.95C64.7408 91.8282 64.9598 91.6503 65.1303 91.43C65.2997 91.2161 65.3945 90.9527 65.4003 90.68C65.4033 90.5472 65.3781 90.4152 65.3264 90.2928C65.2747 90.1704 65.1976 90.0604 65.1003 89.97C64.9128 89.7895 64.6771 89.667 64.4216 89.6173C64.1661 89.5676 63.9018 89.5929 63.6603 89.69C63.2199 89.8956 62.8659 90.2496 62.6603 90.69C62.4669 91.1255 62.3583 91.5938 62.3403 92.07C62.3403 92.53 62.3403 92.98 62.3403 93.4C62.3403 93.82 62.3403 94.24 62.4003 94.64C62.5203 96.21 62.7003 97.47 62.8203 98.34C62.8203 98.78 62.9203 99.11 62.9503 99.34V99.6C62.9363 99.6453 62.9329 99.6932 62.9403 99.74Z" fill="white"/>
<path d="M59.2402 99.89C59.2402 99.89 59.2402 100.24 59.3102 100.82C59.3802 101.4 59.3902 102.31 59.4402 103.25V103.19L61.3302 105.37H61.2402L63.4202 105.25H63.3302L64.4202 103.92L64.9602 103.25V103.34C64.9602 102.06 64.9002 100.84 64.8702 99.74L64.9902 99.85H60.9102H59.2902C59.4199 99.8373 59.5505 99.8373 59.6802 99.85L60.8302 99.79L64.9902 99.63H65.1002V99.75C65.1002 100.86 65.1702 102.07 65.2002 103.35L64.6602 104.01L63.5702 105.34L61.3802 105.45H61.3202L59.4702 103.24C59.4702 102.24 59.4702 101.44 59.4702 100.74C59.3709 100.463 59.294 100.179 59.2402 99.89Z" fill="white"/>
<path d="M64.8796 103.05L64.6696 102.96C64.4843 102.875 64.294 102.802 64.0996 102.74C63.4578 102.515 62.7793 102.413 62.0996 102.44C61.4295 102.46 60.7686 102.602 60.1497 102.86C59.9612 102.935 59.7775 103.022 59.5996 103.12L59.3896 103.22C59.4438 103.165 59.5084 103.12 59.5797 103.09C59.7533 102.982 59.9337 102.885 60.1197 102.8C60.7512 102.523 61.4302 102.37 62.1197 102.35C62.801 102.336 63.4791 102.447 64.1197 102.68C64.3116 102.751 64.4987 102.834 64.6796 102.93C64.7499 102.964 64.8169 103.004 64.8796 103.05Z" fill="white"/>
<path d="M64.8799 102.18L64.6699 102.09C64.5399 102.03 64.3499 101.95 64.0999 101.86C62.8226 101.419 61.4279 101.461 60.1799 101.98C59.9399 102.08 59.7499 102.17 59.6199 102.24C59.4899 102.31 59.4299 102.35 59.4199 102.34L59.6099 102.21C59.783 102.104 59.9634 102.01 60.1499 101.93C60.7799 101.648 61.4599 101.495 62.1499 101.48C62.8321 101.452 63.5128 101.565 64.1499 101.81C64.3458 101.879 64.5363 101.963 64.7199 102.06C64.7771 102.095 64.8307 102.135 64.8799 102.18Z" fill="white"/>
<path d="M64.83 101.34C64.83 101.34 64.75 101.34 64.62 101.26C64.49 101.18 64.3 101.12 64.05 101.03C63.4067 100.811 62.7293 100.709 62.05 100.73C61.3628 100.742 60.6842 100.885 60.05 101.15C59.81 101.25 59.62 101.34 59.49 101.41C59.429 101.453 59.3615 101.487 59.29 101.51L59.48 101.38C59.6508 101.27 59.8316 101.176 60.02 101.1C60.6504 100.818 61.3298 100.661 62.02 100.64C62.7015 100.624 63.3798 100.736 64.02 100.97C64.2124 101.044 64.3995 101.131 64.58 101.23L64.83 101.34Z" fill="white"/>
<path d="M16.3701 44.35C16.3701 44.35 16.5601 66.75 17.7001 73.58L45.7901 72.26C45.7901 72.26 43.3201 50.26 44.2701 44.35H16.3701Z" fill="#C6DABF"/>
<path d="M39.9994 53.76C36.8818 54.2228 33.7397 54.5033 30.5894 54.6C27.4513 54.8835 24.2992 54.9837 21.1494 54.9C24.2665 54.4305 27.4087 54.1467 30.5594 54.05C33.6979 53.7724 36.8498 53.6755 39.9994 53.76Z" fill="white"/>
<path d="M40.0502 58.5099C36.9318 58.9662 33.7901 59.2467 30.6402 59.3499C27.5017 59.6275 24.3498 59.7243 21.2002 59.6399C24.3178 59.1771 27.4599 58.8966 30.6102 58.7999C33.7483 58.5163 36.9006 58.4195 40.0502 58.5099Z" fill="white"/>
<path d="M35.2703 63.16C33.5127 63.5455 31.7196 63.7466 29.9203 63.76C28.1282 63.9421 26.3223 63.9421 24.5303 63.76C26.2922 63.38 28.088 63.1789 29.8903 63.16C31.679 62.9779 33.4816 62.9779 35.2703 63.16Z" fill="white"/>
<path d="M15 110.25C15 110.25 15.19 132.64 16.33 139.48L44.42 138.15C44.42 138.15 41.95 116.15 42.9 110.25H15Z" fill="#C6DABF"/>
<path d="M38.7094 119.66C35.591 120.117 32.4494 120.397 29.2994 120.5C26.1609 120.778 23.009 120.874 19.8594 120.79C22.977 120.327 26.119 120.047 29.2694 119.95C32.4071 119.66 35.5597 119.563 38.7094 119.66Z" fill="white"/>
<path d="M38.7201 124.4C35.6024 124.862 32.4604 125.143 29.3101 125.24C26.172 125.524 23.0198 125.62 19.8701 125.53C22.9878 125.067 26.1298 124.787 29.2801 124.69C32.4186 124.412 35.5705 124.316 38.7201 124.4Z" fill="white"/>
<path d="M33.9402 129.06C32.1816 129.44 30.3892 129.641 28.5902 129.66C26.798 129.839 24.9924 129.839 23.2002 129.66C24.962 129.281 26.7581 129.083 28.5602 129.07C30.3486 128.885 32.1511 128.881 33.9402 129.06Z" fill="white"/>
<path d="M91.8096 50.2899L94.5896 114.89L175.24 115.86L171.62 51.1399L91.8096 50.2899Z" fill="#C6DABF"/>
<path d="M170.99 49.83H90.8799V110.32H170.99V49.83Z" fill="#EEEEEE"/>
<path d="M171 110.32C171 110.32 171 109.93 171 109.19C171 108.45 171 107.37 171 105.97C171 103.13 171 98.97 170.95 93.73C170.95 83.18 170.88 68.09 170.83 49.83L171.05 50.05H90.9497L91.2197 49.78C91.2197 71.53 91.2197 92.13 91.2197 110.27L90.9697 110.02L148.75 110.14L165.18 110.21H169.55H170.68H171.07H170.71H169.61H165.29L148.91 110.27L90.9697 110.39H90.7197V110.14C90.7197 92 90.7197 71.4 90.7197 49.65V49.37H90.9997H171.1H171.33V49.6C171.28 67.92 171.24 83.06 171.21 93.6C171.21 98.85 171.21 102.96 171.15 105.79C171.15 107.17 171.15 108.23 171.15 108.97C171.15 109.71 171 110.32 171 110.32Z" fill="#C6DABF" fill-opacity="0.75"/>
<path d="M133.01 62.6399H100.54V103.51H133.01V62.6399Z" fill="#EEEEEE"/>
<path d="M132.999 103.51C132.995 103.44 132.995 103.37 132.999 103.3V102.72C132.999 102.18 132.999 101.44 132.999 100.49C132.999 98.49 132.999 95.68 132.929 92.1C132.929 84.91 132.859 74.73 132.809 62.64L133.049 62.89H100.579C100.519 62.95 101.099 62.37 100.859 62.62V65.42C100.859 66.36 100.859 67.29 100.859 68.22V73.73C100.859 77.36 100.859 80.9 100.859 84.33C100.859 91.2 100.859 97.63 100.859 103.47L100.629 103.24L124.139 103.36L130.739 103.42H132.489C132.889 103.42 133.099 103.42 133.099 103.42C132.913 103.434 132.726 103.434 132.539 103.42H130.829L124.289 103.48L100.629 103.6H100.399V103.37C100.399 97.53 100.399 91.1 100.399 84.23C100.399 80.8 100.399 77.23 100.399 73.63V62.66L100.679 62.38H133.149H133.399V62.62C133.399 74.78 133.309 85.01 133.279 92.24C133.279 95.8 133.279 98.61 133.209 100.57C133.209 101.503 133.209 102.233 133.209 102.76C133.209 102.98 133.209 103.17 133.209 103.31C133.209 103.45 132.999 103.52 132.999 103.51Z" fill="#C6DABF" fill-opacity="0.75"/>
<path d="M164.01 53.2899H101.78V59.1799H164.01V53.2899Z" fill="#EEEEEE"/>
<path d="M164 59.1799C163.985 59.047 163.985 58.9129 164 58.7799C164 58.4899 164 58.1099 164 57.6299C164 56.6299 164 55.1599 163.94 53.2899L164.05 53.3999C153.55 53.4999 129.63 53.5699 101.82 53.5699L102.1 53.2899V59.1599L101.82 58.8799L145.9 58.9999L159.14 59.0799H162.74H163.68H164.02H163.72H162.81H159.27L146.1 59.1599L101.78 59.2699H101.51V53.3099L101.78 53.0399C129.59 53.0399 153.51 53.0999 164.01 53.1999H164.12V53.3099C164.12 55.2099 164.1 56.6799 164.06 57.7199C164.06 58.1899 164.06 58.5499 164.06 58.8399C164.06 59.1299 164 59.1899 164 59.1799Z" fill="#C6DABF" fill-opacity="0.75"/>
<path d="M164.02 62.6399H136.99V87.2699H164.02V62.6399Z" fill="#EEEEEE"/>
<path d="M164 87.27C163.988 87.1135 163.988 86.9564 164 86.8V85.46C164 84.26 164 82.57 163.94 80.46C163.94 76.13 163.87 70.01 163.82 62.66L164.06 62.9H137.06L137.33 62.63V75.63C137.33 79.76 137.33 83.63 137.33 87.29L137 87L156.5 87.12L162.03 87.19H163.5H164.03C163.873 87.2044 163.716 87.2044 163.56 87.19H162.13L156.65 87.25L137 87.38H136.76V87.13C136.76 83.52 136.76 79.6 136.76 75.47V69.26C136.76 68.18 136.76 67.08 136.76 65.98V62.65L137.04 62.37H164.04H164.27V62.6C164.22 70.01 164.18 76.18 164.15 80.6C164.15 82.7 164.15 84.37 164.09 85.6C164.09 86.1333 164.09 86.5633 164.09 86.89C164.074 87.0196 164.044 87.1471 164 87.27Z" fill="#C6DABF" fill-opacity="0.75"/>
<path d="M164.02 91.13H136.99V103.51H164.02V91.13Z" fill="#EEEEEE"/>
<path d="M164 103.51C163.978 103.21 163.978 102.91 164 102.61V100.13C164 97.94 163.93 94.89 163.89 91.13L164.09 91.33L137.09 91.41C136.84 91.66 137.42 91.07 137.36 91.14V97.49C137.36 99.56 137.36 101.57 137.36 103.49L137.1 103.23L156.43 103.35L162.06 103.43H163.58H164.13C163.967 103.444 163.803 103.444 163.64 103.43H162.18L156.6 103.5L137.1 103.62H136.84V103.36C136.84 101.44 136.84 99.43 136.84 97.36C136.84 96.36 136.84 95.28 136.84 94.21V91.01C136.78 91.01 137.37 90.48 137.12 90.73L164.12 90.8H164.32V90.99C164.27 94.8 164.24 97.9 164.21 100.11C164.21 101.11 164.21 101.94 164.16 102.55C164.133 102.874 164.079 103.195 164 103.51V103.51Z" fill="#C6DABF" fill-opacity="0.75"/>
<path d="M132.21 62.71C122.16 76.6 110.59 89.63 100.54 103.51L132.21 62.71Z" fill="white"/>
<path d="M100.54 103.51C100.606 103.347 100.698 103.195 100.81 103.06L101.65 101.81C102.4 100.73 103.51 99.2 104.9 97.33C107.7 93.57 111.69 88.49 116.16 82.94C120.63 77.39 124.67 72.35 127.54 68.66L130.92 64.29L131.85 63.1C132.07 62.84 132.19 62.7 132.21 62.71C132.143 62.8756 132.052 63.0306 131.94 63.17C131.71 63.51 131.44 63.92 131.1 64.41C130.35 65.49 129.24 67.02 127.85 68.9C125.06 72.65 121.06 77.73 116.59 83.29C112.12 88.85 108.08 93.87 105.21 97.56L101.83 101.94C101.45 102.41 101.15 102.8 100.9 103.12C100.65 103.44 100.56 103.52 100.54 103.51Z" fill="#C6DABF" fill-opacity="0.75"/>
<path d="M133 103.51C132.88 103.61 125.52 94.51 116.55 83.25C107.58 71.99 100.41 62.74 100.55 62.64C100.69 62.54 108.03 71.64 117 82.91C125.97 94.18 133.13 103.42 133 103.51Z" fill="#C6DABF" fill-opacity="0.75"/>
<path d="M94.5897 62.7299C94.5897 63.7346 94.2918 64.7168 93.7336 65.5522C93.1754 66.3876 92.382 67.0387 91.4537 67.4232C90.5255 67.8077 89.5041 67.9083 88.5186 67.7123C87.5332 67.5163 86.628 67.0325 85.9176 66.322C85.2071 65.6116 84.7233 64.7064 84.5273 63.721C84.3313 62.7355 84.4319 61.7141 84.8164 60.7859C85.2009 59.8576 85.852 59.0642 86.6874 58.506C87.5228 57.9478 88.505 57.6499 89.5097 57.6499C90.857 57.6499 92.1491 58.1851 93.1018 59.1378C94.0545 60.0905 94.5897 61.3826 94.5897 62.7299V62.7299Z" fill="#C6DABF" fill-opacity="0.75"/>
<path d="M177.68 50.3999C177.68 51.4047 177.382 52.3868 176.823 53.2222C176.265 54.0576 175.472 54.7088 174.544 55.0933C173.615 55.4777 172.594 55.5784 171.608 55.3823C170.623 55.1863 169.718 54.7025 169.007 53.9921C168.297 53.2816 167.813 52.3764 167.617 51.391C167.421 50.4056 167.522 49.3842 167.906 48.4559C168.291 47.5277 168.942 46.7343 169.777 46.1761C170.613 45.6179 171.595 45.3199 172.6 45.3199C173.947 45.3199 175.239 45.8552 176.192 46.8078C177.144 47.7605 177.68 49.0526 177.68 50.3999V50.3999Z" fill="#C6DABF" fill-opacity="0.75"/>
<path d="M325.1 402.66V425.43H321.3V427.91H325.1V443.15H396.17V429.28H390.91V426.28H396.17V421.75H398.51V419.69H395.73V402.69L325.1 402.66Z" fill="#EEEEEE"/>
<path d="M377.3 402.73V442.89H396.17V429.02H390.91V426.26L396.17 426.35V421.82H398.56L398.51 419.48L395.73 419.41V402.66L377.3 402.73Z" fill="#C6DABF" fill-opacity="0.75"/>
<path d="M378.64 427.58C378.64 427.72 365.78 427.83 349.92 427.83C334.06 427.83 321.2 427.72 321.2 427.58C321.2 427.44 334.06 427.33 349.92 427.33C365.78 427.33 378.64 427.44 378.64 427.58Z" fill="#C6DABF" fill-opacity="0.75"/>
<path d="M378.64 425.27C378.64 425.41 365.78 425.52 349.92 425.52C334.06 425.52 321.2 425.41 321.2 425.27C321.2 425.13 334.06 425.01 349.92 425.01C365.78 425.01 378.64 425.13 378.64 425.27Z" fill="#C6DABF" fill-opacity="0.75"/>
<path d="M382.33 419C382.33 419.14 369.47 419.25 353.61 419.25C337.75 419.25 324.89 419.14 324.89 419C324.89 418.86 337.75 418.75 353.61 418.75C369.47 418.75 382.33 418.9 382.33 419Z" fill="#C6DABF" fill-opacity="0.75"/>
<path d="M382.69 436C382.69 436.14 369.83 436.26 353.97 436.26C338.11 436.26 325.24 436.14 325.24 436C325.24 435.86 338.1 435.75 353.97 435.75C369.84 435.75 382.69 435.87 382.69 436Z" fill="#C6DABF" fill-opacity="0.75"/>
<path d="M110.519 330.41H164.739C166.569 330.41 168.324 329.683 169.618 328.389C170.912 327.095 171.639 325.34 171.639 323.51V306.8C171.639 305.271 171.338 303.758 170.753 302.345C170.168 300.933 169.311 299.65 168.23 298.569C167.149 297.488 165.866 296.631 164.454 296.046C163.042 295.461 161.528 295.16 159.999 295.16H110.109L110.519 330.41Z" fill="#C6DABF"/>
<path d="M163.83 340.92H57.22C55.8336 340.909 54.5075 340.352 53.53 339.369C52.5524 338.386 52.0026 337.056 52 335.67V335.67C52.0026 334.276 52.5577 332.939 53.5435 331.953C54.5294 330.968 55.8658 330.413 57.26 330.41H163.83C165.223 330.413 166.559 330.968 167.543 331.954C168.527 332.94 169.08 334.277 169.08 335.67V335.67C169.08 337.062 168.527 338.398 167.542 339.382C166.558 340.367 165.222 340.92 163.83 340.92V340.92Z" fill="#C6DABF"/>
<path d="M35.4898 190.44L94.1398 189.44L131.37 330.15L51.9998 330.9L21.9998 207.56C21.502 205.519 21.4752 203.392 21.9213 201.34C22.3674 199.288 23.2748 197.364 24.5747 195.714C25.8746 194.064 27.533 192.732 29.4241 191.818C31.3152 190.905 33.3895 190.433 35.4898 190.44V190.44Z" fill="#C6DABF" fill-opacity="0.75"/>
<path d="M64.7102 340.92L47.1602 442.9H51.9702L75.0402 340.92H64.7102Z" fill="#C6DABF"/>
<path d="M106.08 340.92L87.4297 442.9H92.2397L116.41 340.92H106.08Z" fill="#C6DABF" fill-opacity="0.75"/>
<path d="M151.84 340.92L172.64 442.9H167.83L141.5 340.92H151.84Z" fill="#C6DABF"/>
<path d="M87.4297 189.4L116.43 330.26H138.69L115.44 205.8C114.587 201.195 112.149 197.033 108.549 194.037C104.949 191.042 100.413 189.401 95.7297 189.4H87.4297Z" fill="#C6DABF"/>
<path d="M414.62 443.46C414.62 443.6 322.11 443.72 208.01 443.72C93.9099 443.72 1.37988 443.6 1.37988 443.46C1.37988 443.32 93.8699 443.2 208.01 443.2C322.15 443.2 414.62 443.31 414.62 443.46Z" fill="#263238"/>
<path d="M152.53 443.75H76.0703L81.8503 388.09L152.53 387.63V443.75Z" fill="#1A936F"/>
<g opacity="0.4">
<path opacity="0.4" d="M152.53 443.75H76.0703L81.8503 388.09L152.53 387.63V443.75Z" fill="#114B5F"/>
</g>
<path d="M163.681 387.63H87.2207V443.74H163.681V387.63Z" fill="#1A936F"/>
<g opacity="0.2">
<path opacity="0.2" d="M163.681 387.63H87.2207V443.74H163.681V387.63Z" fill="#114B5F"/>
</g>
<path d="M164.32 414.8C164.32 414.94 147.12 415.06 125.91 415.06C104.7 415.06 87.4805 414.94 87.4805 414.8C87.4805 414.66 104.68 414.53 125.91 414.53C147.14 414.53 164.32 414.65 164.32 414.8Z" fill="#263238"/>
<path d="M100.84 420.2C100.493 417.407 100.493 414.583 100.84 411.79C101.187 414.583 101.187 417.407 100.84 420.2Z" fill="#263238"/>
<path d="M154 419.9C153.654 417.409 153.654 414.881 154 412.39C154.347 414.881 154.347 417.409 154 419.9Z" fill="#263238"/>
<path d="M137.16 387.92C137.16 387.92 137.16 387.31 136.98 386.26C136.713 384.772 136.134 383.357 135.28 382.11C134.02 380.258 132.272 378.791 130.23 377.87C127.714 376.762 124.977 376.246 122.23 376.36C119.466 376.382 116.739 376.993 114.23 378.15C112.198 379.099 110.441 380.548 109.12 382.36C108.235 383.584 107.599 384.97 107.25 386.44C107.01 387.49 107 388.09 106.95 388.09C106.935 387.944 106.935 387.796 106.95 387.65C106.951 387.231 106.991 386.812 107.07 386.4C107.35 384.873 107.954 383.424 108.84 382.15C110.158 380.246 111.95 378.719 114.04 377.72C116.589 376.511 119.369 375.87 122.19 375.84C125.014 375.723 127.826 376.271 130.4 377.44C132.502 378.417 134.287 379.966 135.55 381.91C136.405 383.208 136.95 384.687 137.14 386.23C137.177 386.646 137.177 387.064 137.14 387.48C137.172 387.624 137.179 387.773 137.16 387.92Z" fill="#263238"/>
<path d="M108.48 171.2C112.134 169.484 116.242 168.986 120.2 169.78C122.33 170.13 124.55 170.78 125.99 172.36C127.43 173.94 127.71 176.77 126.05 178.14C124.979 178.865 123.688 179.194 122.4 179.07C119.3 179.07 115.87 178.49 113.4 180.35C111.99 181.41 111.05 183.18 109.4 183.7C108.556 183.894 107.671 183.809 106.88 183.457C106.088 183.106 105.432 182.506 105.01 181.75C104.209 180.209 104.03 178.419 104.51 176.75C104.7 175.582 105.157 174.473 105.846 173.51C106.534 172.548 107.436 171.757 108.48 171.2V171.2Z" fill="#1A936F"/>
<path d="M100.32 155.43C102.5 158.55 106.73 157.52 108.7 155.62C110.67 153.72 111.49 150.96 112.25 148.34C113.97 142.34 115.71 136.04 114.43 129.93C114.119 128.08 113.306 126.35 112.08 124.93C111.457 124.231 110.662 123.708 109.774 123.413C108.886 123.118 107.936 123.062 107.02 123.25C104.88 123.81 103.55 125.9 102.59 127.9C99.7637 133.776 98.2844 140.209 98.2598 146.73C98.2598 149.73 98.5998 152.94 100.32 155.44" fill="#1A936F"/>
<path d="M94.3302 159.9C95.4513 158.438 96.1978 156.725 96.5046 154.909C96.8114 153.092 96.6691 151.229 96.0902 149.48C94.9047 145.967 92.769 142.852 89.9202 140.48C86.691 137.62 82.9339 135.419 78.8602 134C77.276 133.354 75.569 133.063 73.8602 133.15C73.0113 133.199 72.1872 133.455 71.4602 133.896C70.7332 134.337 70.1254 134.949 69.6902 135.68C68.5202 137.9 69.6902 140.59 70.8402 142.78C72.9701 146.651 75.4009 150.349 78.1102 153.84C80.2802 156.65 82.7802 159.42 86.1102 160.68C89.4402 161.94 92.8802 161.8 94.6402 159.5" fill="#1A936F"/>
<path d="M100.17 202.4C100.281 201.934 100.348 201.458 100.37 200.98C100.47 199.98 100.59 198.66 100.74 197.12C100.934 195.22 101.225 193.331 101.61 191.46C102.114 189.181 102.803 186.947 103.67 184.78C104.514 182.612 105.662 180.575 107.08 178.73C108.236 177.227 109.711 176.001 111.4 175.14C112.533 174.574 113.748 174.189 115 174C115.476 173.982 115.948 173.915 116.41 173.8C115.932 173.748 115.449 173.748 114.97 173.8C113.662 173.911 112.382 174.249 111.19 174.8C109.411 175.639 107.851 176.878 106.63 178.42C105.152 180.289 103.962 182.369 103.1 184.59C102.239 186.791 101.57 189.063 101.1 191.38C100.734 193.276 100.484 195.193 100.35 197.12C100.23 198.76 100.18 200.12 100.16 201C100.114 201.466 100.117 201.935 100.17 202.4Z" fill="#263238"/>
<path d="M100.431 199.43C100.46 199.211 100.46 198.989 100.431 198.77V196.89C100.431 195.27 100.431 192.89 100.511 190C100.651 184.17 101.161 177.91 102.121 169.07C103.041 160.77 104.271 151.07 105.571 144.81C105.851 143.38 106.131 142.1 106.391 140.97C106.651 139.84 106.861 138.87 107.071 138.08C107.281 137.29 107.391 136.74 107.511 136.26C107.573 136.048 107.61 135.83 107.621 135.61C107.518 135.806 107.44 136.014 107.391 136.23L106.851 138.02C106.611 138.8 106.361 139.77 106.081 140.9C105.801 142.03 105.471 143.3 105.171 144.73C103.557 152.163 102.345 159.677 101.541 167.24C100.541 176.09 100.141 184.15 100.101 189.99C100.101 192.91 100.101 195.27 100.201 196.9C100.201 197.66 100.281 198.28 100.311 198.78C100.33 199 100.37 199.218 100.431 199.43Z" fill="#263238"/>
<path d="M100.471 183.88C100.527 183.215 100.527 182.545 100.471 181.88C100.401 180.62 100.221 178.8 99.8706 176.57C99.4413 173.959 98.8637 171.375 98.1406 168.83C97.2971 165.698 96.2139 162.636 94.9006 159.67C92.6589 154.201 89.4397 149.186 85.4006 144.87C84.7012 144.127 83.9529 143.433 83.1606 142.79C82.8206 142.5 82.5206 142.21 82.1606 141.98L81.2906 141.38C80.7696 141.001 80.2177 140.666 79.6406 140.38C81.5449 141.87 83.3519 143.48 85.0506 145.2C88.9572 149.554 92.0922 154.542 94.3206 159.95C95.6048 162.901 96.6906 165.934 97.5706 169.03C98.3148 171.55 98.9289 174.107 99.4106 176.69C99.8206 178.9 100.051 180.69 100.191 181.95C100.236 182.599 100.33 183.244 100.471 183.88Z" fill="#263238"/>
<path d="M85.4502 211.31L87.0002 232.65H114.42L115.98 211.31H85.4502Z" fill="#263238"/>
<path d="M119.25 202.89H82.7998V211.3H119.25V202.89Z" fill="#263238"/>
<path d="M82.7998 231.83V234.16H84.5098H118.65V231.83H82.7998Z" fill="#114B5F"/>
<path d="M86.1898 238.27L84.5098 234.16H117.34L115.38 238.27H86.1898Z" fill="#114B5F"/>
<path d="M115.47 218.28C115.47 218.28 115.47 218.35 115.34 218.48L114.93 219.02L113.34 221.02L113.26 221.12L113.2 221.02L109.27 215.59H109.5L105.63 221.06L105.51 221.24L105.38 221.07C103.95 219.38 102.38 217.54 100.8 215.62H101.06L100.81 215.94L96.7102 221.07L96.5702 221.24L96.4501 221.06L92.5802 215.6H92.8102L88.0502 221.02L87.9602 221.12L87.9001 221.01L86.4102 218.5L86.0302 217.84C85.9796 217.766 85.9392 217.685 85.9102 217.6C85.9701 217.665 86.0237 217.735 86.0702 217.81L86.4902 218.45L88.0602 220.91H87.9102L92.5901 215.42L92.7102 215.28L92.8202 215.43C94.0002 217.08 95.3102 218.92 96.7202 220.87H96.4501L100.54 215.72L100.79 215.41L100.92 215.24L101.06 215.4C102.66 217.32 104.2 219.17 105.63 220.87H105.37L109.27 215.42L109.39 215.26L109.5 215.42L113.34 220.91H113.2C113.9 220.08 114.46 219.41 114.86 218.91L115.31 218.4C115.359 218.354 115.412 218.313 115.47 218.28V218.28Z" fill="#C6DABF" fill-opacity="0.75"/>
<path d="M116.36 211.17C116.36 211.26 109.49 211.34 101.02 211.34C92.5499 211.34 85.6699 211.26 85.6699 211.17C85.6699 211.08 92.5399 211 101 211C109.46 211 116.36 211.07 116.36 211.17Z" fill="#114B5F"/>
<path d="M117.75 234.39C117.75 234.49 110.28 234.56 101.07 234.56C91.8604 234.56 84.4004 234.49 84.4004 234.39C84.4004 234.29 91.8604 234.22 101.07 234.22C110.28 234.22 117.75 234.3 117.75 234.39Z" fill="#263238"/>
<path d="M259.6 238.74H339.88V234.84H259.6V238.74Z" fill="#263238"/>
<path d="M352.321 238.74L367.381 182.32H304.691L291.061 238.74H352.321Z" fill="#263238"/>
<path d="M294.82 234.47H350.81L363.85 184.93H307.56L294.82 234.47Z" fill="#114B5F"/>
<path d="M351.2 235H294.2L307.2 184.45H364.52L351.2 235ZM295.46 234H350.46L363.23 185.45H308L295.46 234Z" fill="#263238"/>
<path d="M98.2004 249.7H94.1504V443.26H98.2004V249.7Z" fill="#114B5F"/>
<path d="M102.26 250.25H98.21V443.25H102.26V250.25Z" fill="#263238"/>
<path d="M347.97 249.7H343.92V443.26H347.97V249.7Z" fill="#114B5F"/>
<path d="M352.02 250.25H347.97V443.25H352.02V250.25Z" fill="#263238"/>
<path d="M408.59 238.45H47.1602V254.33H408.59V238.45Z" fill="#114B5F"/>
<path d="M345.95 254.33H210.38V280.61H345.95V254.33Z" fill="#114B5F"/>
<path d="M284.21 265.65C284.21 266.243 284.034 266.823 283.704 267.317C283.375 267.81 282.906 268.195 282.358 268.422C281.81 268.649 281.207 268.708 280.625 268.592C280.043 268.477 279.508 268.191 279.089 267.771C278.669 267.352 278.383 266.817 278.268 266.235C278.152 265.653 278.211 265.05 278.438 264.502C278.665 263.954 279.05 263.485 279.543 263.156C280.037 262.826 280.617 262.65 281.21 262.65C282.006 262.65 282.769 262.966 283.331 263.529C283.894 264.091 284.21 264.854 284.21 265.65Z" fill="#263238"/>
<path d="M375.48 254.33C375.48 254.47 328.48 254.59 270.58 254.59C212.68 254.59 165.68 254.47 165.68 254.33C165.68 254.19 212.68 254.07 270.58 254.07C328.48 254.07 375.48 254.19 375.48 254.33Z" fill="#263238"/>
<path d="M250.38 67.52C250.92 67.52 258.23 68.74 258.23 68.74L268.12 81.2L269.61 83.56L256.27 92.09L250.38 83.37L245.38 80.12C246.124 79.5514 247.011 79.1992 247.943 79.1022C248.874 79.0051 249.814 79.167 250.66 79.57C252.631 80.3989 254.752 80.8141 256.89 80.79L255.13 75.79L249.71 74.71L250.38 67.52Z" fill="#FFBE9D"/>
<path d="M251 58.8C251.207 58.7457 251.424 58.7356 251.636 58.7704C251.847 58.8052 252.049 58.8841 252.228 59.0019C252.407 59.1198 252.56 59.274 252.676 59.4546C252.791 59.6351 252.868 59.838 252.9 60.05C253.71 65.16 256.16 80.54 256.9 85.05C256.962 85.4091 256.888 85.7785 256.692 86.0856C256.496 86.3928 256.192 86.6155 255.84 86.71L244.07 90C243.867 90.0579 243.654 90.0711 243.445 90.0386C243.236 90.0061 243.037 89.9287 242.861 89.8118C242.685 89.6948 242.537 89.5411 242.426 89.3613C242.315 89.1814 242.245 88.9797 242.22 88.77L239 63.24C238.952 62.8664 239.042 62.4881 239.254 62.1767C239.466 61.8652 239.785 61.6423 240.15 61.55L251 58.8Z" fill="#263238"/>
<path d="M243.1 86.85L255.1 83.5L251.92 62.26C251.878 61.9739 251.775 61.7 251.62 61.4563C251.464 61.2126 251.259 61.0045 251.017 60.8459C250.775 60.6872 250.502 60.5815 250.217 60.5357C249.931 60.4898 249.639 60.505 249.36 60.58L239.75 63.13L243.1 86.85Z" fill="#C6DABF"/>
<path d="M254.85 71.3099L249.46 75.3099C249.46 75.3099 249.91 76.7299 250.73 76.8299C252.477 76.6016 254.202 76.2337 255.89 75.7299L254.85 71.3099Z" fill="#FFBE9D"/>
<path d="M254.2 68.08L248.55 70.56C248.55 70.56 248.19 72.4 250.3 72.14L248.41 73.5C248.41 73.5 248.88 74.32 251.24 74.42C253.6 74.52 255.89 71.24 255.89 71.24L254.2 68.08Z" fill="#FFBE9D"/>
<path d="M259.81 74.3699C259.81 74.4399 259.12 74.3099 258.37 73.6099C257.957 73.2232 257.523 72.8593 257.07 72.5199C256.815 72.3327 256.517 72.2141 256.204 72.1756C255.89 72.1371 255.572 72.1799 255.28 72.2999C253.711 73.2032 252.073 73.9791 250.38 74.6199C251.843 73.5089 253.426 72.5663 255.1 71.8099C255.483 71.6539 255.901 71.6055 256.31 71.6699C256.671 71.7548 257.011 71.9112 257.31 72.1299C257.778 72.4908 258.207 72.8997 258.59 73.3499C258.972 73.7178 259.38 74.0587 259.81 74.3699Z" fill="#EB996E"/>
<path d="M258.7 88.45C257.732 87.2802 257.13 85.8508 256.97 84.3407C256.81 82.8306 257.099 81.3067 257.8 79.96C257.526 81.3826 257.422 82.8328 257.49 84.28C257.725 85.7133 258.132 87.1134 258.7 88.45Z" fill="#EB996E"/>
<path d="M258 70.57C257.93 70.63 257.63 70.2 256.91 69.97C255.947 69.7012 254.917 69.8196 254.04 70.3C252.98 70.81 252.04 71.46 251.29 71.77C250.54 72.08 250.01 72.15 250 72.09C249.99 72.03 250.44 71.85 251.12 71.44C251.8 71.03 252.68 70.37 253.83 69.83C254.373 69.5584 254.965 69.3986 255.57 69.36C256.075 69.3304 256.579 69.423 257.04 69.63C257.79 70 258 70.55 258 70.57Z" fill="#EB996E"/>
<path d="M257.53 106L286.92 124.87L279.13 147.15C279.13 147.15 259.02 140.94 259.39 140.29C259.76 139.64 257.53 106 257.53 106Z" fill="#1A936F"/>
<path d="M249.93 407.58L245.3 428.87C245.3 428.87 265.39 440.72 264.92 444.73L223.32 437.25L229.16 403.78L249.93 407.58Z" fill="#263238"/>
<path d="M223.32 437.25L224.04 433.9L263.66 442.33C263.66 442.33 265.36 443.47 264.92 444.73L223.32 437.25Z" fill="#114B5F"/>
<path d="M202.61 409.92L201.92 431.69C201.92 431.69 223.83 439.69 224.09 443.74L181.82 443.93L181.5 409.93L202.61 409.92Z" fill="#263238"/>
<g opacity="0.6">
<path opacity="0.6" d="M181.82 443.93L181.92 440.5L222.41 441.61C222.41 441.61 224.3 442.42 224.09 443.74L181.82 443.93Z" fill="#114B5F"/>
</g>
<path d="M208.74 52.86L213.05 102.86L238.05 100.86C238.2 97.94 237.99 86.64 237.99 86.64C237.99 86.64 248.4 85.02 248.53 74.64C248.59 69.58 247.87 59.14 247.11 49.73C246.718 44.7067 244.373 40.037 240.578 36.7225C236.783 33.408 231.841 31.7127 226.81 32C224.242 32.1497 221.73 32.8123 219.422 33.9488C217.114 35.0852 215.058 36.6725 213.373 38.6169C211.689 40.5612 210.411 42.8233 209.616 45.2696C208.82 47.7159 208.522 50.2968 208.74 52.86Z" fill="#FFBE9D"/>
<path d="M238 86.45C233.194 86.5372 228.47 85.1936 224.43 82.59C224.43 82.59 227.64 90.08 238.02 89.14L238 86.45Z" fill="#EB996E"/>
<path d="M243.1 57C243.103 57.3883 242.954 57.7625 242.685 58.0427C242.416 58.3228 242.048 58.4869 241.66 58.5C241.471 58.5149 241.281 58.4919 241.101 58.4322C240.921 58.3726 240.755 58.2775 240.612 58.1526C240.47 58.0277 240.354 57.8755 240.271 57.7051C240.188 57.5346 240.14 57.3492 240.13 57.16C240.127 56.7732 240.275 56.4005 240.541 56.1206C240.808 55.8407 241.174 55.6755 241.56 55.66C241.749 55.645 241.94 55.668 242.12 55.7275C242.301 55.787 242.468 55.882 242.611 56.0067C242.755 56.1315 242.872 56.2836 242.956 56.4541C243.039 56.6247 243.089 56.8102 243.1 57Z" fill="#263238"/>
<path d="M244.9 54.9C244.72 55.1 243.59 54.26 241.99 54.27C240.39 54.28 239.22 55.07 239.05 54.88C238.88 54.69 239.15 54.44 239.66 54.07C240.354 53.5916 241.177 53.3368 242.02 53.34C242.853 53.337 243.666 53.5997 244.34 54.09C244.83 54.46 245 54.82 244.9 54.9Z" fill="#263238"/>
<path d="M227.74 56.9999C227.745 57.3874 227.598 57.7615 227.331 58.042C227.064 58.3225 226.697 58.4869 226.31 58.4999C226.12 58.5149 225.929 58.4919 225.749 58.4324C225.568 58.3728 225.402 58.2779 225.258 58.1532C225.115 58.0284 224.998 57.8763 224.914 57.7058C224.83 57.5352 224.781 57.3497 224.77 57.1599C224.769 56.7723 224.919 56.3996 225.187 56.1199C225.456 55.8403 225.822 55.6754 226.21 55.6599C226.398 55.6464 226.588 55.6704 226.767 55.7305C226.946 55.7907 227.112 55.8859 227.254 56.0105C227.397 56.1351 227.513 56.2868 227.596 56.4566C227.679 56.6264 227.728 56.8111 227.74 56.9999Z" fill="#263238"/>
<path d="M229.18 55.2C229 55.39 227.87 54.56 226.27 54.57C224.67 54.58 223.5 55.37 223.33 55.17C223.16 54.97 223.43 54.74 223.94 54.37C224.63 53.8838 225.456 53.6283 226.3 53.64C227.134 53.6335 227.948 53.8966 228.62 54.39C229.11 54.76 229.27 55.11 229.18 55.2Z" fill="#263238"/>
<path d="M235 67.06C235.844 66.7966 236.717 66.6388 237.6 66.59C238 66.59 238.39 66.47 238.46 66.19C238.492 65.7688 238.398 65.3474 238.19 64.98C237.8 63.98 237.4 62.98 236.98 61.87C235.3 57.44 234.09 53.8 234.27 53.74C234.45 53.68 235.95 57.21 237.63 61.63C238.03 62.73 238.42 63.77 238.78 64.76C239.038 65.2548 239.116 65.8241 239 66.37C238.94 66.5147 238.848 66.6434 238.73 66.7459C238.612 66.8483 238.471 66.9217 238.32 66.96C238.095 67.0234 237.863 67.057 237.63 67.06C236.757 67.1743 235.873 67.1743 235 67.06Z" fill="#263238"/>
<path d="M230.28 68.17C230.54 68.17 230.54 69.89 232.03 71.17C233.52 72.45 235.36 72.17 235.38 72.46C235.4 72.75 234.97 72.79 234.18 72.81C233.161 72.8161 232.173 72.4619 231.39 71.81C230.614 71.1937 230.114 70.2946 230 69.31C230 68.59 230.16 68.16 230.28 68.17Z" fill="#263238"/>
<path d="M229.6 48.9299C229.44 49.3699 227.84 49.1599 225.96 49.3899C224.08 49.6199 222.57 50.1299 222.32 49.7399C222.21 49.5499 222.47 49.1399 223.09 48.7399C223.906 48.2208 224.829 47.8959 225.789 47.7901C226.75 47.6843 227.722 47.8006 228.63 48.1299C229.32 48.3799 229.66 48.7299 229.6 48.9299Z" fill="#263238"/>
<path d="M244.32 50.27C244.04 50.64 242.93 50.27 241.61 50.27C240.29 50.27 239.16 50.52 238.9 50.14C238.79 49.95 238.97 49.59 239.46 49.24C240.12 48.83 240.886 48.6246 241.661 48.6495C242.437 48.6744 243.189 48.9286 243.82 49.38C244.29 49.72 244.44 50.1 244.32 50.27Z" fill="#263238"/>
<path d="M220 41.4499H219.94C218.295 42.7653 217.221 44.6633 216.94 46.7499V46.9599C216.53 49.9599 216.61 52.9599 216.17 55.9599C215.73 58.9599 214.71 61.9599 212.51 63.9599C211.61 64.7999 210.02 65.3799 209.28 64.3999C209.026 63.9924 208.898 63.5197 208.91 63.0399C208.35 55.8699 206.39 49.5099 206.41 42.0399C206.399 41.0357 206.628 40.0434 207.079 39.1458C207.529 38.2482 208.188 37.4713 209 36.8799C210.57 35.7599 212.48 34.5899 214.23 35.4199C215.98 36.2499 218.23 39.5099 219.58 40.8899" fill="#263238"/>
<path d="M212.25 57.57C212.07 57.49 205.1 55.45 205.32 62.57C205.54 69.69 212.65 67.99 212.65 67.79C212.65 67.59 212.25 57.57 212.25 57.57Z" fill="#FFBE9D"/>
<path d="M210.39 65.16C210.39 65.16 210.27 65.25 210.07 65.35C209.778 65.4869 209.444 65.5048 209.14 65.4C208.671 65.1239 208.285 64.7285 208.02 64.2541C207.754 63.7797 207.62 63.2434 207.63 62.7C207.593 62.0892 207.692 61.4779 207.92 60.91C207.977 60.6827 208.089 60.4727 208.246 60.2984C208.402 60.1242 208.599 59.9908 208.82 59.91C208.961 59.8689 209.113 59.8773 209.249 59.9336C209.385 59.9899 209.498 60.0909 209.57 60.22C209.67 60.42 209.63 60.56 209.67 60.57C209.71 60.58 209.81 60.45 209.75 60.16C209.703 59.9831 209.597 59.8275 209.45 59.72C209.247 59.5843 209.001 59.5274 208.76 59.56C208.47 59.6309 208.203 59.7733 207.983 59.9742C207.763 60.1752 207.596 60.4282 207.5 60.71C207.216 61.3368 207.093 62.0239 207.14 62.71C207.23 64.15 208.01 65.46 209.04 65.71C209.233 65.7589 209.435 65.7637 209.631 65.7239C209.826 65.684 210.011 65.6007 210.17 65.48C210.39 65.33 210.42 65.17 210.39 65.16Z" fill="#EB996E"/>
<path d="M214 36.52C212.25 33.67 217.05 29.58 220.56 28.52C224.07 27.46 228.7 29.12 232.19 30.28C234.4 31.01 236.59 32.03 238.92 31.94C240.471 31.7748 241.99 31.3875 243.43 30.79C244.869 30.1814 246.418 29.875 247.98 29.89C248.76 29.9065 249.521 30.1361 250.18 30.5538C250.839 30.9715 251.372 31.5615 251.72 32.26C252.31 33.7 251.47 35.68 249.92 35.89C250.414 35.6214 250.966 35.4763 251.528 35.4669C252.091 35.4575 252.647 35.5842 253.15 35.8362C253.653 36.0881 254.087 36.4578 254.416 36.9139C254.745 37.3699 254.96 37.8988 255.04 38.4554C255.121 39.012 255.066 39.5799 254.88 40.1107C254.694 40.6415 254.382 41.1194 253.972 41.5039C253.561 41.8883 253.064 42.1678 252.522 42.3186C251.98 42.4694 251.41 42.4871 250.86 42.37C251.86 41.6 253.42 42.87 253.29 44.13C253.154 44.7522 252.858 45.3283 252.432 45.8017C252.006 46.2751 251.464 46.6295 250.86 46.83C247.86 48.13 244.43 47.71 241.36 46.68C238.29 45.65 235.44 44.04 232.36 42.93C229.28 41.82 224.21 39.82 221.16 40.93C218.91 41.73 217.34 44.44 216.07 43.84C215.471 43.5199 214.955 43.0637 214.564 42.5079C214.173 41.9521 213.918 41.3123 213.82 40.64C213.652 39.3078 213.699 37.9572 213.96 36.64" fill="#263238"/>
<path d="M250.77 35.66C250.71 35.66 250.41 36.18 249.64 37.01C248.551 38.1695 247.195 39.0449 245.69 39.56C243.478 40.3554 241.042 40.2586 238.9 39.29C236.48 38.2 234.41 36 232 34C229.79 31.9297 226.997 30.5891 224 30.16C222.762 30.0083 221.507 30.1411 220.328 30.5483C219.15 30.9556 218.08 31.6265 217.2 32.51C216.633 33.1271 216.196 33.853 215.918 34.6437C215.639 35.4345 215.524 36.2735 215.58 37.11C215.619 37.5594 215.724 38.0007 215.89 38.42C216.02 38.7 216.1 38.84 216.12 38.83C215.985 38.2612 215.895 37.6828 215.85 37.1C215.851 35.516 216.464 33.9936 217.56 32.85C218.411 32.0461 219.431 31.4435 220.546 31.087C221.66 30.7304 222.841 30.6289 224 30.79C226.85 31.2431 229.498 32.5427 231.6 34.52C233.94 36.52 236.08 38.75 238.67 39.88C240.579 40.696 242.701 40.8751 244.72 40.3905C246.739 39.906 248.549 38.7837 249.88 37.19C250.164 36.8502 250.412 36.4815 250.62 36.09C250.73 35.82 250.79 35.67 250.77 35.66Z" fill="#114B5F"/>
<path d="M210.43 57.2599C210.43 57.2599 210.74 57.0599 211.01 56.4999C211.361 55.6883 211.485 54.7967 211.37 53.9199C211.21 51.6299 209.18 49.1699 208.92 45.9999C208.739 44.5357 209.015 43.0514 209.71 41.7499C210.317 40.7217 211.244 39.9208 212.35 39.4699C213.101 39.1533 213.921 39.0395 214.73 39.1399C215.3 39.2399 215.61 39.3699 215.64 39.3099C215.402 39.0908 215.108 38.9419 214.79 38.8799C213.928 38.6554 213.018 38.6972 212.18 38.9999C210.932 39.4396 209.874 40.2938 209.18 41.4199C208.382 42.8311 208.056 44.4604 208.25 46.0699C208.435 47.6332 208.899 49.1506 209.62 50.5499C210.191 51.6379 210.612 52.7985 210.87 53.9999C211.066 55.1059 210.913 56.2457 210.43 57.2599V57.2599Z" fill="#114B5F"/>
<path d="M252.2 425.84C252.2 425.84 273.87 319.54 273.89 317.42L235.18 297L220.18 421.75L252.2 425.84Z" fill="#263238"/>
<path d="M203.46 429.4L233.39 245.17V205.43L190.05 208.53C189.53 210.08 178.6 429.64 178.6 429.64L182.82 429.4H203.46Z" fill="#263238"/>
<path d="M256.92 202.62L273.89 317.42L235.95 308.22L220.49 206.36L256.92 202.62Z" fill="#263238"/>
<path d="M263.46 252.07C263.46 252.07 270.06 246.4 270.71 242.13C271.36 237.86 262.8 169.13 262.8 169.13L258.43 112.31C258.43 113.31 258.55 105.15 257.23 104.66C253.23 103.15 245.01 100.41 245.01 100.41L240.31 96.1899C240.31 96.1899 248.75 132.27 250.39 142.13L263.46 252.07Z" fill="#1A936F"/>
<path d="M209.27 92.27L202.17 97L175.54 107.47L187.37 152.08L185.78 178L184.27 194.45C184.27 194.45 176.34 235.18 169.34 259.93C169.34 259.93 177.15 274.73 183.57 276.79L186.24 278.38L195.76 208.67L203.93 197.67C204.72 196.61 205.45 195.52 206.14 194.4C208.14 191.13 212.72 183.7 216.37 177.97C221.19 170.4 227.37 153.2 225.54 145.86C223.71 138.52 209.27 92.27 209.27 92.27Z" fill="#1A936F"/>
<path d="M191.18 246.06C197.415 241.015 202.594 234.789 206.42 227.74L191.18 246.06Z" fill="#263238"/>
<path d="M209.27 92.27L215.68 133.4C215.506 138.658 214.635 143.871 213.09 148.9L201.65 185.9C201.65 185.9 192.65 206.07 195.76 208.65C198.87 211.23 223.06 208.65 223.06 208.65L255.8 203.9C256.53 203.793 257.192 203.41 257.648 202.829C258.104 202.248 258.319 201.515 258.25 200.78L253.39 150.56C251.75 147.09 251.08 139.99 250.39 137.47L240.31 96.2L238.25 95.93L233.77 99L231.41 99.19L211.6 89.6L209.27 92.27Z" fill="#C6DABF"/>
<path d="M203.3 180.53C208.59 164.04 215.44 137.23 215.44 137.23C217.57 151.23 215.24 165.58 210.03 178.78C205.77 189.54 200.62 197.68 197.08 208.71L196.97 209.16C196.97 209.16 194.97 209.27 195.11 206.32C195.25 203.37 198.11 194.59 200.02 189.73C201.93 184.87 203.3 180.53 203.3 180.53Z" fill="#C6DABF" fill-opacity="0.75"/>
<path d="M234.91 102.49H230.46L229.13 108.58L233.02 113.29L236.94 112.9L238.22 108.53L237.17 106.09L234.91 102.49Z" fill="#1A936F"/>
<path d="M260.86 138.05C262.26 138.33 277.72 148.73 283.34 147.61C288.96 146.49 293.51 141.19 294.11 140.48C297.3 136.7 295.3 128.85 294.38 125.89C294.156 125.168 293.851 124.473 293.47 123.82L269.6 82.8199L255.53 91.3699L270.13 118L260.86 138.05Z" fill="#1A936F"/>
<path d="M145.73 187.62C144.805 185.201 144.403 182.613 144.552 180.028C144.7 177.442 145.395 174.917 146.59 172.62C149.83 166.21 154.97 155.86 156.05 152.46C157.65 147.41 172.61 108.66 175.54 107.46L188.54 151.35L173.44 183.15L191.14 216.5L176.39 232.4C176.39 232.4 148.48 193.48 146.18 188.67C146.02 188.323 145.87 187.973 145.73 187.62Z" fill="#1A936F"/>
<path d="M191.84 242.52C194.631 239.908 197.111 236.982 199.23 233.8C199.21 233.758 199.2 233.712 199.2 233.665C199.2 233.618 199.21 233.572 199.23 233.53C199.264 233.48 199.309 233.438 199.361 233.407C199.412 233.376 199.47 233.357 199.53 233.35C200.377 232.037 201.152 230.678 201.85 229.28C199.38 227.67 196.15 225.28 199.66 224.74C203.99 224.12 207.08 222.02 207.52 220.87C207.96 219.72 206.52 218.69 205.38 219.42C204.068 220.093 202.668 220.578 201.22 220.86C200.064 221.133 198.871 221.207 197.69 221.08C196.32 220.93 190.69 218.49 189.69 218.31L179.16 229.39C179.16 229.39 187.25 238 191.84 242.52Z" fill="#FFBE9D"/>
<path d="M260.76 139.27C260.588 138.876 260.464 138.463 260.39 138.04C260.18 137.24 259.92 136.04 259.63 134.61C258.89 130.824 258.346 127.002 258 123.16C257.657 119.317 257.517 115.458 257.58 111.6C257.58 110.12 257.66 108.93 257.72 108.1C257.729 107.67 257.776 107.242 257.86 106.82C257.931 107.246 257.951 107.679 257.92 108.11C257.92 109.04 257.92 110.21 257.92 111.6C257.92 114.6 258.09 118.6 258.49 123.12C258.89 127.64 259.49 131.64 259.97 134.55C260.2 135.92 260.4 137.08 260.56 138C260.667 138.416 260.734 138.841 260.76 139.27Z" fill="#263238"/>
<path d="M273 141.64C273 141.64 272.88 141.64 272.66 141.56C272.351 141.447 272.053 141.307 271.77 141.14C270.729 140.496 269.858 139.611 269.23 138.56C268.351 137.005 267.736 135.316 267.41 133.56C266.898 131.44 266.501 129.293 266.22 127.13C265.8 122.51 265.45 118.36 265.22 115.34C265.12 113.91 265.04 112.71 264.97 111.76C264.922 111.321 264.922 110.879 264.97 110.44C265.082 110.866 265.156 111.301 265.19 111.74C265.29 112.74 265.43 113.88 265.59 115.3C265.92 118.3 266.33 122.49 266.74 127.07C267.03 129.35 267.46 131.51 267.89 133.45C268.179 135.193 268.739 136.88 269.55 138.45C270.132 139.476 270.931 140.363 271.89 141.05C272.61 141.44 273.05 141.6 273 141.64Z" fill="#263238"/>
<g opacity="0.3">
<path opacity="0.3" d="M264.94 110.48C263.722 115.088 262.879 119.786 262.42 124.53C261.999 127.361 262.148 130.248 262.86 133.02C263.72 135.74 265.73 138.25 268.49 139.02C267.23 129.74 266.12 120.443 265.16 111.13" fill="#114B5F"/>
</g>
<g opacity="0.3">
<path opacity="0.3" d="M183.06 200.39C183.06 200.39 187.74 209.98 190.33 215C195.73 192.69 188.88 169.21 191.11 146.37L187.21 154.24L186.11 172.45L185.27 183.13C185.27 183.13 184.47 194.62 183.06 200.39Z" fill="#114B5F"/>
</g>
<path d="M186.84 107.88C187.142 108.267 187.407 108.682 187.63 109.12C187.88 109.53 188.16 110.04 188.46 110.64C188.76 111.24 189.13 111.93 189.46 112.71C190.275 114.533 190.98 116.403 191.57 118.31C192.993 122.998 193.707 127.871 193.69 132.77C193.685 134.777 193.548 136.781 193.28 138.77C193.2 139.62 193.04 140.38 192.92 141.04C192.8 141.7 192.68 142.28 192.57 142.74C192.481 143.226 192.343 143.701 192.16 144.16C192.187 143.668 192.257 143.18 192.37 142.7C192.45 142.23 192.55 141.7 192.64 140.99C192.73 140.28 192.85 139.57 192.92 138.73C193.125 136.76 193.222 134.78 193.21 132.8C193.179 130.381 192.995 127.966 192.66 125.57C192.291 123.177 191.773 120.809 191.11 118.48C190.551 116.58 189.883 114.713 189.11 112.89C188.81 112.1 188.46 111.42 188.19 110.8C187.92 110.18 187.66 109.67 187.44 109.25C187.194 108.815 186.993 108.356 186.84 107.88Z" fill="#263238"/>
<path d="M173.3 183.42C173.23 183.47 172.56 182.42 171.3 180.77C169.62 178.691 167.626 176.886 165.39 175.42C164.193 174.611 162.746 174.256 161.31 174.42C160.145 174.635 159.042 175.106 158.08 175.8C156.39 176.96 155.47 177.87 155.4 177.8C155.563 177.54 155.765 177.307 156 177.11C156.585 176.527 157.21 175.985 157.87 175.49C158.853 174.747 159.992 174.237 161.2 174C162.747 173.779 164.32 174.135 165.62 175C167.912 176.49 169.92 178.376 171.55 180.57C172.044 181.229 172.499 181.917 172.91 182.63C173.081 182.872 173.212 183.138 173.3 183.42Z" fill="#263238"/>
<path d="M170 172.91C171.985 175.939 173.124 179.443 173.3 183.06C173.14 183.06 172.75 180.72 171.83 177.93C170.91 175.14 169.89 173 170 172.91Z" fill="#263238"/>
<path d="M182.75 199.77C183.037 200.174 183.288 200.602 183.5 201.05L185.4 204.64C186.99 207.69 189.16 211.94 191.57 216.71L191.66 216.88L191.53 217.01L190.53 218.01C186.6 222.1 183.03 225.79 180.42 228.43L177.31 231.55C176.944 231.949 176.546 232.317 176.12 232.65C176.418 232.21 176.753 231.795 177.12 231.41L180.12 228.18C182.66 225.46 186.2 221.74 190.12 217.65L191.12 216.65V216.95C188.72 212.17 186.6 207.95 185.12 204.8L183.37 201.14C183.119 200.705 182.912 200.246 182.75 199.77Z" fill="#263238"/>
<path d="M202.23 179.65C202.204 179.361 202.204 179.069 202.23 178.78C202.23 178.17 202.23 177.35 202.23 176.31C202.28 174.12 202.35 171.02 202.44 167.22C202.53 163.42 202.63 158.82 202.84 153.75C202.967 148.223 203.719 142.728 205.08 137.37C205.836 134.624 206.896 131.971 208.24 129.46L208.43 129.84C207.185 129.627 206.053 128.987 205.23 128.03C204.444 127.133 203.873 126.07 203.56 124.92C203.102 122.792 202.927 120.613 203.04 118.44C203.04 114.37 203.04 110.73 203.04 107.69C203.04 104.65 203.04 102.28 203.04 100.56C203.04 99.76 203.04 99.12 203.04 98.64C203.016 98.4206 203.016 98.1994 203.04 97.98C203.078 98.1979 203.094 98.4189 203.09 98.64C203.09 99.12 203.09 99.76 203.14 100.56C203.14 102.28 203.2 104.69 203.25 107.68C203.3 110.67 203.32 114.36 203.36 118.44C203.26 120.571 203.441 122.706 203.9 124.79C204.199 125.862 204.735 126.854 205.47 127.69C206.215 128.559 207.241 129.139 208.37 129.33L208.73 129.39L208.56 129.71C207.235 132.186 206.192 134.802 205.45 137.51C204.104 142.831 203.346 148.284 203.19 153.77C202.96 158.83 202.83 163.4 202.67 167.24C202.51 171.08 202.39 174.12 202.3 176.32L202.18 178.79C202.211 179.076 202.227 179.363 202.23 179.65Z" fill="#263238"/>
<path d="M245.08 101C245.18 101.174 245.26 101.358 245.32 101.55C245.46 101.97 245.66 102.55 245.89 103.16L247.96 109.16C248.82 111.73 249.85 114.78 250.96 118.16C251.51 119.89 252.19 121.65 252.7 123.6C252.974 124.614 253.019 125.677 252.83 126.71C252.732 127.261 252.524 127.787 252.219 128.257C251.913 128.726 251.515 129.128 251.05 129.44L251.13 129.07C251.97 130.32 252.86 131.65 253.69 133.07C254.938 135.08 255.881 137.264 256.49 139.55C256.958 141.703 257.109 143.913 256.94 146.11C256.7 150.26 256.43 153.99 256.21 157.11C255.99 160.23 255.8 162.73 255.66 164.54C255.59 165.37 255.53 166.04 255.49 166.54C255.48 166.776 255.446 167.011 255.39 167.24C255.366 167.004 255.366 166.766 255.39 166.53C255.39 166.02 255.44 165.34 255.47 164.53C255.56 162.71 255.69 160.18 255.85 157.09C256.01 154 256.24 150.2 256.48 146.09C256.619 143.942 256.46 141.785 256.01 139.68C255.403 137.447 254.473 135.315 253.25 133.35C252.43 131.97 251.55 130.65 250.71 129.35L250.56 129.13L250.79 128.99C251.196 128.717 251.543 128.364 251.809 127.953C252.076 127.543 252.256 127.082 252.34 126.6C252.519 125.637 252.481 124.647 252.23 123.7C251.75 121.82 251.07 120.01 250.53 118.3C249.43 114.87 248.44 111.81 247.6 109.23C246.76 106.65 246.15 104.66 245.69 103.23C245.48 102.56 245.32 102.01 245.19 101.59C245.139 101.396 245.102 101.199 245.08 101Z" fill="#263238"/>
<path d="M206.16 225.26C206.049 225.555 205.894 225.832 205.7 226.08C205.38 226.59 204.9 227.31 204.29 228.19C203.06 229.95 201.29 232.34 199.29 234.92C197.29 237.5 195.35 239.76 193.93 241.36C193.22 242.16 192.63 242.8 192.21 243.23C191.79 243.66 191.55 243.89 191.52 243.87C192.168 242.907 192.88 241.989 193.65 241.12C195 239.46 196.86 237.12 198.88 234.6C200.9 232.08 202.69 229.68 203.99 227.97C204.653 227.02 205.378 226.115 206.16 225.26Z" fill="#114B5F"/>
<path d="M221.83 212.36C221.83 212.36 221.83 212.55 221.83 212.92C221.83 213.29 221.73 213.86 221.65 214.57C221.49 216.03 221.24 218.16 220.93 220.89C220.28 226.38 219.31 234.33 218.03 244.13C215.5 263.74 211.66 290.79 207.53 320.67C205.47 335.62 203.53 349.86 201.97 362.84C201.56 366.08 201.23 369.25 200.77 372.32C200.31 375.39 199.84 378.32 199.4 381.22L196.98 397.22C195.51 407 194.35 414.91 193.59 420.39C193.21 423.12 192.93 425.25 192.76 426.7C192.68 427.42 192.62 427.97 192.6 428.34C192.591 428.48 192.591 428.62 192.6 428.76C192.6 428.88 192.67 428.76 192.67 428.76C192.67 428.76 192.59 428.76 192.6 428.71C192.581 428.571 192.581 428.429 192.6 428.29C192.6 427.92 192.65 427.36 192.72 426.64C192.85 425.19 193.1 423.05 193.45 420.31C194.15 414.82 195.25 406.9 196.67 397.12C197.4 392.22 198.19 386.87 199.03 381.12C199.47 378.24 199.91 375.27 200.37 372.21C200.83 369.15 201.15 365.98 201.56 362.74C203.14 349.74 205.02 335.51 207.07 320.56C211.2 290.67 215.07 263.64 217.73 244.04C219.02 234.26 220.06 226.33 220.79 220.83C221.14 218.1 221.42 215.98 221.61 214.51C221.71 213.81 221.78 213.26 221.83 212.87C221.88 212.48 221.83 212.36 221.83 212.36Z" fill="#114B5F"/>
<path d="M244.65 424.85C244.664 424.669 244.688 424.489 244.72 424.31C244.78 423.93 244.86 423.4 244.97 422.71C245.22 421.29 245.57 419.24 245.97 416.6C246.9 411.27 248.25 403.6 249.91 394.13L263.15 320C263.535 318.241 263.643 316.432 263.47 314.64C263.24 312.86 262.94 311.06 262.68 309.3C262.14 305.76 261.604 302.277 261.07 298.85C259.99 292.01 258.92 285.41 257.88 279.13C255.79 266.57 253.77 255.28 251.97 245.82C250.17 236.36 248.58 228.73 247.38 223.48C246.81 220.85 246.29 218.82 245.97 217.48C245.82 216.81 245.7 216.28 245.61 215.91C245.52 215.54 245.5 215.37 245.5 215.37C245.563 215.544 245.617 215.721 245.66 215.9L246.08 217.46C246.43 218.83 246.98 220.85 247.58 223.46C248.84 228.69 250.48 236.32 252.33 245.77C254.18 255.22 256.23 266.51 258.33 279.07C259.39 285.35 260.46 291.95 261.55 298.79C262.084 302.223 262.624 305.707 263.17 309.24C263.44 311.02 263.73 312.78 263.97 314.6C264.146 316.449 264.035 318.315 263.64 320.13C258.43 349.04 253.72 375.22 250.3 394.19C248.57 403.65 247.17 411.31 246.2 416.63C245.71 419.27 245.32 421.32 245.06 422.73C244.93 423.41 244.82 423.94 244.75 424.31C244.68 424.68 244.65 424.85 244.65 424.85Z" fill="#114B5F"/>
<path d="M233.39 243.87C233.54 243.87 231.77 255.79 229.44 270.45C227.11 285.11 225.12 297 225 297C224.88 297 226.63 285.08 228.95 270.42C231.27 255.76 233.25 243.85 233.39 243.87Z" fill="#114B5F"/>
<path d="M203.82 429.07C203.494 429.165 203.159 429.222 202.82 429.24C202.19 429.31 201.27 429.4 200.13 429.49C197.86 429.67 194.71 429.84 191.23 429.89C187.75 429.94 184.59 429.89 182.31 429.78C181.17 429.78 180.25 429.68 179.62 429.62C179.282 429.625 178.944 429.578 178.62 429.48C179.848 429.385 181.08 429.365 182.31 429.42C184.59 429.42 187.73 429.42 191.21 429.37C194.69 429.32 197.82 429.21 200.1 429.12C201.338 429.02 202.58 429.003 203.82 429.07Z" fill="#114B5F"/>
<path d="M252.2 425.84C251.776 425.859 251.35 425.835 250.93 425.77L247.49 425.41C244.59 425.08 240.59 424.58 236.17 424.01C231.75 423.44 227.75 422.89 224.86 422.47L221.44 421.95C221.018 421.899 220.6 421.816 220.19 421.7C220.617 421.659 221.048 421.676 221.47 421.75C222.28 421.82 223.47 421.94 224.91 422.1C227.81 422.43 231.82 422.92 236.24 423.49C240.66 424.06 244.65 424.62 247.54 425.04L250.96 425.57C251.383 425.611 251.799 425.701 252.2 425.84Z" fill="#114B5F"/>
<path d="M210 98.9199C210.389 99.1204 210.757 99.3582 211.1 99.6299L214.04 101.63C216.54 103.34 220.04 105.63 224.04 107.91C225.54 108.77 227.04 109.57 228.36 110.29L228 110.45C228.84 107.13 229.58 104.28 230.12 102.27C230.38 101.33 230.6 100.55 230.78 99.9099C230.844 99.6228 230.941 99.3442 231.07 99.0799C231.063 99.3742 231.019 99.6665 230.94 99.9499C230.8 100.6 230.63 101.39 230.43 102.34C229.96 104.34 229.29 107.24 228.43 110.57L228.36 110.87L228.08 110.73C226.71 110.02 225.23 109.22 223.73 108.36C220.3 106.402 216.982 104.255 213.79 101.93C212.57 101.04 211.6 100.28 210.94 99.7499C210.597 99.5087 210.282 99.2303 210 98.9199Z" fill="#263238"/>
<path d="M243 106.28C241.608 107.394 240.13 108.398 238.58 109.28L238.36 109.42L238.24 109.18L236.89 106.55C235.89 104.55 234.94 102.65 234.31 101.29C233.918 100.576 233.603 99.8213 233.37 99.04C233.865 99.6888 234.287 100.39 234.63 101.13C235.35 102.44 236.32 104.27 237.35 106.31L238.7 109L238.36 108.9C239.841 107.916 241.392 107.04 243 106.28Z" fill="#263238"/>
<path d="M236.48 105.3C236.214 105.562 235.918 105.794 235.6 105.99C235.05 106.4 234.27 106.99 233.4 107.54C232.53 108.09 231.74 108.66 231.16 109.04C230.844 109.259 230.509 109.449 230.16 109.61C230.427 109.346 230.723 109.111 231.04 108.91C231.6 108.51 232.38 107.96 233.24 107.37L235.48 105.87C235.796 105.652 236.131 105.461 236.48 105.3Z" fill="#263238"/>
<path d="M233.48 107.37C232.767 106.81 232.098 106.194 231.48 105.53C230.834 104.909 230.236 104.241 229.69 103.53C230.385 104.091 231.033 104.707 231.63 105.37C232.298 105.988 232.916 106.657 233.48 107.37Z" fill="#263238"/>
<path d="M214.64 196.08C214.936 198.579 215.635 201.014 216.71 203.29C217.932 205.488 219.506 207.471 221.37 209.16C220.685 208.84 220.064 208.395 219.54 207.85C216.824 205.362 215.087 201.986 214.64 198.33C214.507 197.586 214.507 196.824 214.64 196.08Z" fill="#263238"/>
<path d="M220.46 209.26C217.131 208.976 214.013 207.511 211.67 205.13C211.77 205.01 213.49 206.38 215.91 207.51C218.33 208.64 220.49 209.1 220.46 209.26Z" fill="#263238"/>
<path d="M240 177.25C240.172 177.588 240.297 177.948 240.37 178.32C240.58 179.02 240.85 180.04 241.15 181.32C241.77 183.85 242.5 187.38 243.08 191.32C243.66 195.26 243.99 198.84 244.14 201.45C244.21 202.75 244.25 203.8 244.25 204.53C244.299 204.905 244.299 205.285 244.25 205.66C244.157 205.293 244.103 204.918 244.09 204.54C244.01 203.7 243.92 202.68 243.81 201.47C243.57 198.89 243.19 195.32 242.61 191.4C242.03 187.48 241.35 183.95 240.83 181.4C240.59 180.21 240.38 179.2 240.21 178.4C240.098 178.026 240.027 177.64 240 177.25Z" fill="#263238"/>
<path d="M233.34 114.31C232.04 124.7 231.08 147.31 230.72 157.8C230.42 166.56 230.45 175.33 230.48 184.1C230.48 186.93 230.48 189.85 231.69 192.42C233.78 197.05 238.89 199.42 243.58 201.3L233.34 114.31Z" fill="#C6DABF" fill-opacity="0.75"/>
<path d="M245 199.8L250.37 186.64L236.94 112.9L233.02 113.29C233.02 113.29 233.57 189.93 233.39 190.62L245 199.8Z" fill="#1A936F"/>
<path d="M236.8 112.9C236.194 113.092 235.565 113.196 234.93 113.21C234.306 113.292 233.674 113.292 233.05 113.21C233.668 113.103 234.293 113.043 234.92 113.03C235.543 112.947 236.171 112.904 236.8 112.9Z" fill="#263238"/>
</svg>
