<svg width="40" height="40" viewBox="0 0 40 40" fill="none" xmlns="http://www.w3.org/2000/svg">
<path d="M15 34H1V9H16" stroke="#1A936F" stroke-width="1.5" stroke-miterlimit="10" stroke-linecap="round" stroke-linejoin="round"/>
<path d="M16 27.7C13.6 26.6 12 24.3 12 21.5C12 18.8 13.6 16.4 15.9 15.3" stroke="#114B5F" stroke-width="1.5" stroke-miterlimit="10" stroke-linecap="round" stroke-linejoin="round"/>
<path d="M8 9V34" stroke="#1A936F" stroke-width="1.5" stroke-miterlimit="10" stroke-linecap="round" stroke-linejoin="round"/>
<path d="M12 6H5V9H12V6Z" stroke="#1A936F" stroke-width="1.5" stroke-miterlimit="10" stroke-linecap="round" stroke-linejoin="round"/>
<path d="M31.7 22.4L35 20L38.5 24" stroke="#C6DABF" stroke-width="1.5" stroke-miterlimit="10" stroke-linecap="round" stroke-linejoin="round"/>
<path d="M19.1001 22.9L26.0001 18L34.0001 26" stroke="#C6DABF" stroke-width="1.5" stroke-miterlimit="10" stroke-linecap="round" stroke-linejoin="round"/>
<path d="M39 7H19V34H39V7Z" stroke="#1A936F" stroke-width="1.5" stroke-miterlimit="10" stroke-linecap="round" stroke-linejoin="round"/>
<path d="M39 26H19" stroke="#1A936F" stroke-width="1.5" stroke-miterlimit="10" stroke-linecap="round" stroke-linejoin="round"/>
<path d="M24 30H28" stroke="#114B5F" stroke-width="1.5" stroke-miterlimit="10" stroke-linecap="round" stroke-linejoin="round"/>
<path d="M31 30H35" stroke="#114B5F" stroke-width="1.5" stroke-miterlimit="10" stroke-linecap="round" stroke-linejoin="round"/>
<path d="M31.5 15C32.8807 15 34 13.8807 34 12.5C34 11.1193 32.8807 10 31.5 10C30.1193 10 29 11.1193 29 12.5C29 13.8807 30.1193 15 31.5 15Z" stroke="#F3E9D2" stroke-width="1.5" stroke-miterlimit="10" stroke-linecap="round" stroke-linejoin="round"/>
</svg>
