<svg width="1440" height="1234" viewBox="0 0 1440 1234" fill="none" xmlns="http://www.w3.org/2000/svg">
<path opacity="0.25" d="M834.5 305.5C958.11 185.583 1049.16 25.9006 1199 -59C1331.25 -133.934 1462.94 -199.593 1585 -109C1704.75 -20.1174 1579.26 8.53813 1557 156C1514.83 435.334 1530.78 528.893 1311.5 707C1209.16 790.123 901.401 813.963 801.5 900C645.366 1034.47 378.971 1158.35 178.5 1206C26.6034 1242.1 -2.12784 1260.37 -110 1147.5C-176.076 1078.36 -191.984 886.709 -201 791.5C-223.052 558.624 182.285 642.558 365 496.5C552.828 346.355 661.907 472.936 834.5 305.5Z" fill="#F3E9D2"/>
</svg>
