<svg width="547" height="300" viewBox="0 0 547 300" fill="none" xmlns="http://www.w3.org/2000/svg">
<path d="M130.698 175.264L130.909 174.81L130.909 174.81L130.698 175.264ZM377.698 139.264L377.86 138.79L377.86 138.79L377.698 139.264ZM544.05 299.241C544.313 299.323 544.593 299.176 544.675 298.912L546.012 294.615C546.094 294.352 545.947 294.071 545.683 293.989C545.42 293.907 545.14 294.055 545.057 294.318L543.869 298.138L540.05 296.949C539.786 296.867 539.506 297.015 539.424 297.278C539.342 297.542 539.489 297.822 539.753 297.904L544.05 299.241ZM0.714477 0.390505C18.211 66.9723 53.1982 139.771 130.487 175.717L130.909 174.81C54.0193 139.05 19.1485 66.6051 1.68164 0.136351L0.714477 0.390505ZM130.487 175.717C174.915 196.38 213.81 179.388 252.958 161.324C292.166 143.231 331.631 124.066 377.537 139.737L377.86 138.79C331.514 122.97 291.672 142.358 252.539 160.416C213.347 178.501 174.868 195.255 130.909 174.81L130.487 175.717ZM377.537 139.737C462.575 168.766 504.525 224.33 543.755 298.996L544.641 298.531C505.36 223.77 463.251 167.94 377.86 138.79L377.537 139.737Z" fill="#114B5F"/>
</svg>
