<svg viewBox="0 0 38 38" fill="none" xmlns="http://www.w3.org/2000/svg">
<path d="M28 13C29.9 15.5 31 18.6 31 22C31 30.3 24.3 37 16 37C7.7 37 1 30.3 1 22C1 13.7 7.7 7 16 7C19.4 7 22.5 8.1 25 10" stroke="#1A936F" stroke-width="1.5" stroke-miterlimit="10" stroke-linecap="round" stroke-linejoin="round"/>
<path d="M23.9999 17.9C24.5999 19.1 24.8999 20.5 24.8999 21.9C24.8999 26.9 20.8999 30.9 15.8999 30.9C10.8999 30.9 6.8999 26.9 6.8999 21.9C6.8999 16.9 10.8999 12.9 15.8999 12.9C17.4999 12.9 18.8999 13.3 20.1999 14" stroke="#88D498" stroke-width="1.5" stroke-miterlimit="10" stroke-linecap="round" stroke-linejoin="round"/>
<path d="M19.9 21.1C20 21.4 20 21.6 20 21.9C20 24.1 18.2 25.9 16 25.9C13.8 25.9 12 24.1 12 21.9C12 19.7 13.8 17.9 16 17.9C16.3 17.9 16.7 17.9 17 18" stroke="#F3E9D2" stroke-width="1.5" stroke-miterlimit="10" stroke-linecap="round" stroke-linejoin="round"/>
<path d="M16 22L28 10" stroke="#114B5F" stroke-width="1.5" stroke-miterlimit="10" stroke-linecap="round" stroke-linejoin="round"/>
<path d="M28 10H32L37 5H33V1L28 6V10Z" stroke="#114B5F" stroke-width="1.5" stroke-miterlimit="10" stroke-linecap="round" stroke-linejoin="round"/>
</svg>
