<svg width="123" height="120" viewBox="0 0 123 120" fill="none" xmlns="http://www.w3.org/2000/svg">
<path d="M67.2603 76.8599C74.7103 79.4599 84.4302 77.1299 90.8102 72.4799C97.1902 67.8299 101.81 61.16 105.81 54.39C107.55 51.51 109.24 48.4999 109.81 45.1699C110.38 41.8399 109.55 38.1099 106.97 35.9399C102.97 32.5699 96.8302 34.2799 92.2802 36.8699C85.1825 41.0109 79.1981 46.8158 74.8429 53.7841C70.4877 60.7525 67.8923 68.6753 67.2802 76.8699" fill="#1A936F"/>
<path d="M75.2603 94.69C79.7403 100.59 87.4302 103.22 94.8302 103.56C102.23 103.9 109.54 101.86 116.45 99.21C118.96 98.21 121.71 96.92 122.57 94.38C122.842 93.3958 122.865 92.3594 122.636 91.3643C122.407 90.3692 121.935 89.4467 121.26 88.68C119.89 87.1624 118.175 85.9964 116.26 85.28C109.332 82.5143 101.687 82.0997 94.5002 84.1C87.3302 85.96 81.0803 90.1 75.2603 94.69Z" fill="#1A936F"/>
<path d="M67.1602 44.94C73.3202 45.06 77.9902 39.66 80.7802 34.16C84.6587 26.4664 85.9493 17.7262 84.4602 9.23994C83.8902 6.08994 82.7002 2.68994 79.8802 1.17994C77.0602 -0.330057 73.2902 0.649956 70.8802 2.84996C68.4702 5.04996 67.1602 8.16995 66.2002 11.2799C62.8902 21.9899 63.6102 34.28 67.2002 44.94" fill="#1A936F"/>
<path d="M46.9 79.05C57.41 61.15 59.16 39.26 52.95 19.45C51.95 16.24 50.04 12.56 46.68 12.35C42.96 12.11 40.63 16.26 39.6 19.85C36 32.42 36.76 45.78 37.6 58.85C38.09 66.9 40.85 73.77 46.94 79.06" fill="#1A936F"/>
<path d="M36.0001 86.41C34.0432 80.2769 30.7343 74.6614 26.3173 69.9779C21.9004 65.2944 16.4882 61.6625 10.4801 59.35C7.69007 58.3 4.14006 57.7 2.06006 59.84C-0.0199394 61.98 0.640075 65.44 1.95008 68.05C4.07008 72.28 7.51008 75.68 10.9501 78.94C14.0701 81.94 17.3001 84.88 21.2401 86.6C25.1801 88.32 32.4201 88.76 36.0201 86.41" fill="#1A936F"/>
<path d="M101.16 40.4299C101.105 40.4955 101.041 40.5528 100.97 40.5999L100.41 41.0399L98.1999 42.6799L96.5999 43.8599C96.0299 44.3099 95.4299 44.8599 94.7699 45.3599C93.4699 46.4399 91.9299 47.6199 90.3799 49.0899L87.8999 51.3399C87.0499 52.1299 86.2199 53.0199 85.3299 53.8999C83.5199 55.6399 81.7699 57.6699 79.8799 59.7699C71.8705 69.0524 65.3833 79.546 60.6599 90.8599C59.6599 93.4899 58.5899 95.9699 57.8399 98.3599C57.4599 99.5499 57.0299 100.69 56.7099 101.81C56.3899 102.93 56.0899 104.01 55.7999 105.04C55.1799 107.04 54.7999 108.98 54.4299 110.63C54.2399 111.46 54.0499 112.22 53.9099 112.94C53.7699 113.66 53.6699 114.3 53.5699 114.89C53.3599 116.04 53.1999 116.94 53.0799 117.6C53.0199 117.89 52.9799 118.12 52.9399 118.3C52.9323 118.383 52.9121 118.463 52.8799 118.54C52.8643 118.461 52.8643 118.379 52.8799 118.3C52.8799 118.11 52.9299 117.88 52.9699 117.59C53.0699 116.92 53.1999 116.01 53.3699 114.86L53.6699 112.86C53.7899 112.14 53.9699 111.37 54.1399 110.54C54.5099 108.88 54.8499 106.97 55.4499 104.91C55.7299 103.91 56.0299 102.8 56.3299 101.67C56.6299 100.54 57.0599 99.4 57.4399 98.2C58.1799 95.79 59.1999 93.2999 60.2299 90.6599C64.9158 79.2717 71.4317 68.726 79.5199 59.4399C81.4299 57.3399 83.1999 55.3099 85.0299 53.5799C85.9299 52.6999 86.7599 51.8199 87.6299 51.0299L90.1399 48.7999C91.7099 47.3399 93.2699 46.1799 94.5899 45.1099C95.2599 44.5899 95.8699 44.1099 96.4499 43.6499L98.0799 42.4999L100.34 40.92L100.94 40.5199L101.16 40.4299Z" fill="#263238"/>
<path d="M115.08 90C114.836 89.987 114.595 89.9468 114.36 89.88C113.89 89.8 113.21 89.62 112.31 89.47C109.797 88.991 107.255 88.6803 104.7 88.54C96.2477 88.0234 87.789 89.4461 79.9706 92.6992C72.1523 95.9524 65.1811 100.95 59.5901 107.31C57.894 109.205 56.324 111.21 54.8901 113.31C54.3601 114.05 54.0101 114.67 53.7401 115.06C53.616 115.273 53.472 115.474 53.3101 115.66C53.4102 115.437 53.5237 115.22 53.6501 115.01C53.9001 114.6 54.2201 114.01 54.7301 113.21C56.1019 111.035 57.6398 108.968 59.33 107.03C64.8934 100.553 71.8974 95.471 79.78 92.1905C87.6626 88.91 96.2044 87.5227 104.72 88.1401C107.288 88.3072 109.838 88.6716 112.35 89.2301C113.24 89.4101 113.92 89.62 114.35 89.74C114.601 89.8036 114.845 89.8906 115.08 90Z" fill="#263238"/>
<path d="M76.2499 8.31982C76.2499 8.31982 76.2499 8.41982 76.2499 8.59982C76.2499 8.77982 76.1499 9.06981 76.0799 9.39981C75.9066 10.1398 75.6766 11.1698 75.39 12.4898C74.78 15.1598 73.86 19.0198 72.7 23.7798C70.38 33.3098 67.0099 46.4298 63.5099 60.9598C61.7599 68.2398 60.1899 75.1898 58.8299 81.5198C57.4699 87.8498 56.3499 93.5898 55.5099 98.4098C55.0499 100.82 54.71 103.01 54.39 104.93C54.07 106.85 53.7999 108.5 53.5999 109.86C53.3999 111.22 53.2399 112.23 53.1199 112.98L52.9799 113.79C52.9726 113.882 52.9524 113.973 52.92 114.06C52.9043 113.967 52.9043 113.872 52.92 113.78C52.92 113.573 52.9499 113.303 53.0099 112.97C53.0999 112.22 53.2399 111.17 53.3999 109.83C53.5599 108.49 53.7999 106.83 54.0999 104.89C54.3999 102.95 54.7199 100.77 55.1499 98.3498C55.9499 93.5098 57.0599 87.7798 58.3699 81.4298C59.6799 75.0798 61.2699 68.1298 63.0099 60.8498C66.5199 46.2998 69.9399 33.1998 72.3499 23.6998C73.5399 18.9698 74.5099 15.1298 75.1899 12.4398C75.5199 11.1398 75.7799 10.1098 75.9699 9.37982C76.0599 9.05982 76.1299 8.78981 76.1899 8.58981C76.1985 8.49765 76.2187 8.40694 76.2499 8.31982V8.31982Z" fill="#263238"/>
<path d="M52.1 112.62C52.1 112.62 52.1 112.55 52.03 112.41L51.89 111.76C51.76 111.15 51.59 110.32 51.37 109.27C50.92 107.1 50.37 103.96 49.66 100.07C48.31 92.2798 46.66 81.4698 45.73 69.4398C45.25 63.4398 44.99 57.6798 44.87 52.4398C44.75 47.1998 44.87 42.5098 44.99 38.5598C45.04 36.5598 45.17 34.7998 45.26 33.2298C45.35 31.6598 45.45 30.3198 45.55 29.2298C45.65 28.1398 45.73 27.3198 45.78 26.6998C45.78 26.4398 45.84 26.2198 45.86 26.0398C45.88 25.8598 45.86 25.8198 45.86 25.8198C45.8708 25.8961 45.8708 25.9735 45.86 26.0498C45.86 26.2298 45.86 26.4398 45.86 26.7098C45.86 27.3298 45.78 28.1798 45.72 29.2498C45.66 30.3198 45.57 31.6998 45.51 33.2498C45.45 34.7998 45.35 36.5998 45.32 38.5698C45.2 42.5198 45.19 47.2198 45.32 52.4298C45.45 57.6398 45.74 63.4298 46.21 69.4298C47.21 81.4298 48.73 92.2498 49.99 100.04C50.62 103.94 51.16 107.09 51.55 109.26C51.73 110.32 51.87 111.16 51.97 111.77C51.97 112.04 52.05 112.25 52.07 112.43C52.0883 112.492 52.0983 112.555 52.1 112.62Z" fill="#263238"/>
<path d="M52.8801 114.9C52.768 114.702 52.6743 114.495 52.6001 114.28C52.4335 113.82 52.2035 113.22 51.9101 112.48L51.4201 111.18L50.7401 109.66L49.9701 107.92C49.7001 107.31 49.3501 106.69 48.9701 106.02L47.9001 103.93L46.6201 101.73C45.7801 100.19 44.6801 98.66 43.6201 96.99C41.1747 93.4657 38.5304 90.0835 35.7001 86.86C32.8273 83.6768 29.7933 80.6428 26.6101 77.77C25.1001 76.49 23.7101 75.22 22.3201 74.15L20.3201 72.56L18.4301 71.17C17.2301 70.26 16.1101 69.51 15.1201 68.84C14.1301 68.17 13.2901 67.6 12.5701 67.17L10.9401 66.17C10.7422 66.062 10.5576 65.9311 10.3901 65.78C10.5988 65.8617 10.7996 65.9621 10.9901 66.08L12.6701 67.08C13.4101 67.48 14.2801 68.03 15.2801 68.68C16.2801 69.33 17.4201 70.06 18.6301 70.95L20.5501 72.33C21.1901 72.83 21.8701 73.33 22.5501 73.9C23.9701 74.96 25.3701 76.22 26.8901 77.49C30.1066 80.3582 33.1644 83.3994 36.0501 86.6C38.8933 89.8399 41.5413 93.2459 43.9801 96.8C45.0301 98.49 46.1101 100.04 46.9801 101.6C47.4101 102.36 47.8301 103.11 48.2401 103.82C48.6501 104.53 48.9501 105.26 49.2901 105.93C49.6301 106.6 49.9501 107.24 50.2201 107.86C50.4901 108.48 50.7201 109.07 50.9601 109.63C51.2001 110.19 51.4001 110.68 51.6001 111.16C51.8001 111.64 51.9101 112.08 52.0501 112.48C52.3001 113.24 52.5001 113.85 52.6601 114.32C52.7465 114.508 52.82 114.702 52.8801 114.9V114.9Z" fill="#263238"/>
<path d="M97.2601 61.19C97.2601 61.27 95.9801 61.27 93.9401 61.38C88.6021 61.6688 83.3277 62.6779 78.2601 64.38C76.3101 65.03 75.1301 65.49 75.1001 65.38C75.3419 65.2002 75.6078 65.0554 75.8901 64.95C76.4101 64.7 77.1801 64.38 78.1401 64.01C83.1928 62.1256 88.5284 61.1112 93.9201 61.01C94.9201 61.01 95.7901 61.01 96.3701 61.06C96.6711 61.0646 96.9703 61.1084 97.2601 61.19Z" fill="#263238"/>
<path d="M105.19 99.9399C104.036 97.5847 102.58 95.3896 100.86 93.4099C99.0158 91.5455 96.9347 89.9317 94.6699 88.6099C95.429 88.8066 96.1515 89.1239 96.8099 89.5499C100.112 91.4506 102.761 94.3056 104.41 97.7399C104.783 98.4283 105.046 99.1705 105.19 99.9399Z" fill="#263238"/>
<path d="M78.1402 22.8499C78.2402 22.9599 76.3002 24.8499 74.1902 27.4799C72.0802 30.1099 70.5702 32.3498 70.4502 32.2798C71.3201 30.427 72.448 28.7066 73.8002 27.1699C75.0315 25.5286 76.4933 24.0736 78.1402 22.8499V22.8499Z" fill="#263238"/>
<path d="M71.7803 11.8799C72.5816 14.608 73.0615 17.4204 73.2103 20.2599C72.7211 18.9188 72.3856 17.5266 72.2103 16.1099C71.9098 14.7203 71.7656 13.3015 71.7803 11.8799V11.8799Z" fill="#263238"/>
<path d="M52.11 46.3101C51.2349 48.5389 50.2058 50.7041 49.03 52.7901C48.001 54.9495 46.8284 57.0375 45.52 59.0401C46.3889 56.8102 47.4148 54.6448 48.59 52.5601C49.6245 50.4015 50.8004 48.3137 52.11 46.3101Z" fill="#263238"/>
<path d="M40.3999 34.6199C41.4142 36.0984 42.288 37.6686 43.0099 39.3099C43.8794 40.8745 44.6057 42.5145 45.1799 44.2099C44.1615 42.7374 43.2875 41.1701 42.5699 39.5299C41.6993 37.9623 40.973 36.3189 40.3999 34.6199V34.6199Z" fill="#263238"/>
<path d="M23.19 74.5999C23.19 74.7399 21.07 74.3399 18.47 74.1599C15.87 73.9799 13.74 74.0699 13.73 73.9299C15.2949 73.5583 16.9132 73.4669 18.51 73.6599C20.1135 73.6919 21.6984 74.0102 23.19 74.5999Z" fill="#263238"/>
<path d="M36.8502 119.95H69.9302L71.6802 109.94H34.9502L36.8502 119.95Z" fill="#114B5F"/>
</svg>
