<svg viewBox="0 0 36 36" fill="none" xmlns="http://www.w3.org/2000/svg">
<path d="M18.5 28C23.7467 28 28 23.7467 28 18.5C28 13.2533 23.7467 9 18.5 9C13.2533 9 9 13.2533 9 18.5C9 23.7467 13.2533 28 18.5 28Z" stroke="#114B5F" stroke-width="1.5" stroke-miterlimit="10" stroke-linecap="round" stroke-linejoin="round"/>
<path d="M18.5 25C22.0898 25 25 22.0898 25 18.5C25 14.9101 22.0898 12 18.5 12C14.9101 12 12 14.9101 12 18.5C12 22.0898 14.9101 25 18.5 25Z" stroke="#88D498" stroke-width="1.5" stroke-miterlimit="10" stroke-linecap="round" stroke-linejoin="round"/>
<path d="M15 18.5C15 16.6 16.6 15 18.5 15" stroke="#F3E9D2" stroke-width="1.5" stroke-miterlimit="10" stroke-linecap="round" stroke-linejoin="round"/>
<path d="M16 35V31H21V35" stroke="#114B5F" stroke-width="1.5" stroke-miterlimit="10" stroke-linecap="round" stroke-linejoin="round"/>
<path d="M17 28V31" stroke="#114B5F" stroke-width="1.5" stroke-miterlimit="10" stroke-linecap="round" stroke-linejoin="round"/>
<path d="M20 28V31" stroke="#114B5F" stroke-width="1.5" stroke-miterlimit="10" stroke-linecap="round" stroke-linejoin="round"/>
<path d="M2 6H34" stroke="#1A936F" stroke-width="1.5" stroke-miterlimit="10" stroke-linecap="round" stroke-linejoin="round"/>
<path d="M7 25H5C3.3 25 2 23.7 2 22V4C2 2.3 3.3 1 5 1H31C32.7 1 34 2.3 34 4V22C34 23.7 32.7 25 31 25H29" stroke="#1A936F" stroke-width="1.5" stroke-miterlimit="10" stroke-linecap="round" stroke-linejoin="round"/>
</svg>
